<svg xmlns="http://www.w3.org/2000/svg" viewBox="0 0 81.3 102.9"><defs><style>.cls-1{fill:#fff;}</style></defs><title>Ativo 22</title><g id="Camada_2" data-name="Camada 2"><g id="Camada_2-2" data-name="Camada 2"><path class="cls-1" d="M81.3,76.35V102.9H0c0-5.1,3.15-11.25,9.45-16.35,4.8-4.2,13-7.65,22.35-11.7,13.35-6.3,22.95-11.55,22.95-24.3V19.35c0-9.75-.6-17.85-12-18.15H40c-11.4.3-12,8.4-12,18.15S22.2,33.75,14.4,33.75c-7.2,0-12.9-4.8-12.9-12C1.5,7.5,18.15,0,37.5,0h7.8c19.35,0,36,8.55,36,29.25C81.3,57,50.1,68.4,27.75,77.85a70.75,70.75,0,0,1,14.4-1.5Zm-1.2,1.2H42.15c-26.55,0-39.9,14.1-40.95,24.15H80.1ZM33.6,1.35c-16.95.9-30.9,7.8-30.9,20.4,0,5.85,4.5,10.8,11.7,10.8,7.8,0,12.45-4.8,12.45-13.5C26.85,11.55,27.3,4,33.6,1.35Zm12,67.5c17.7-8.4,34.5-19.5,34.5-39.6,0-18.6-13.8-26.85-30.9-27.9,6.3,2.85,6.75,10.2,6.75,17.7v31.5C56.1,58.65,52.2,64.2,45.6,68.85Z"/></g></g></svg>