<svg xmlns="http://www.w3.org/2000/svg" viewBox="0 0 79.65 102.9"><defs><style>.cls-1{fill:#fff;}</style></defs><title>Ativo 43</title><g id="Camada_2" data-name="Camada 2"><g id="Camada_2-2" data-name="Camada 2"><path class="cls-1" d="M79.65,70.8c0,21-17.85,32.1-38.4,32.1h-6.9C15,102.9,0,95.4,0,81.15c0-7.2,5.85-12,13-12,7.8,0,13.5,4.5,13.5,14.4,0,9.75.45,17.85,10.5,18.15h4.2c5.55,0,11.85-1.65,11.85-13.2V54.15C53.1,41.7,44.4,39,40.8,39,32.85,39,22,42,18.3,48.75H16.95C19.2,36,35.7,31.65,51.75,25a68.12,68.12,0,0,1-14.25,1.5H3V0H79.65c0,4.65-2.7,10.5-8.25,15.45-14.25,12.9-45.6,15.9-52.2,30C24.3,40,34,37.8,40.8,37.8,64.65,37.8,79.65,49,79.65,70.8Zm-48.3,30.9c-5.7-2.85-6-10.2-6-17.85,0-8.7-4.5-13.5-12.3-13.5-7.2,0-11.85,5-11.85,10.8C1.2,94,14.1,100.95,31.35,101.7ZM37.5,25.35C64,25.35,77.4,11.25,78.45,1.2H4.2V25.35ZM78.45,70.8c0-19.8-12.9-30-32.1-31.5,4,2,7.95,6.3,7.95,14.85V88.5c0,6.9-2.25,10.8-5.4,12.6C64.8,98.85,78.45,88.8,78.45,70.8Z"/></g></g></svg>