<svg xmlns="http://www.w3.org/2000/svg" viewBox="0 0 79.65 102.9"><defs><style>.cls-1{fill:#fff;}</style></defs><title>Ativo 65</title><g id="Camada_2" data-name="Camada 2"><g id="Camada_2-2" data-name="Camada 2"><path class="cls-1" d="M79.65,69.3c0,22-17.85,33.6-38.4,33.6h-6.9C15,102.9,0,95.4,0,81.15c0-7.2,5.85-12,13-12,7.8,0,13.5,4.5,13.5,14.4,0,9.75.45,17.85,10.5,18.15h4.2c5.55,0,11.85-1.65,11.85-16.2V49.65c0-11.4-6.45-14.55-12.15-15.3C39,34.2,37,34,35.25,34h-1C28.65,34,14.7,36.3,7.5,43.2V41.4c7.2-6,20.1-8.55,27.15-8.55h.6A32.54,32.54,0,0,1,39,33C58.65,34.2,79.65,45.9,79.65,69.3Zm-48.3,32.4c-5.7-2.85-6-10.2-6-17.85,0-8.7-4.5-13.5-12.3-13.5-7.2,0-11.85,5-11.85,10.8C1.2,94,14.1,100.95,31.35,101.7ZM7.35,7.35,7.5,43.2H6.3L6.15.15V0h69V26.55H40C21,26.55,10.65,17.25,7.35,7.35ZM73.95,1.2H7.35C8.1,12.45,17.7,25.35,40,25.35h33.9Zm4.5,68.1c0-19.65-15-30.3-30.75-33.9,3.75,2.4,6.6,6.45,6.6,14.25V85.5c0,9-2.4,13.5-5.85,15.75C64.65,98.85,78.45,88.5,78.45,69.3Z"/></g></g></svg>