<svg xmlns="http://www.w3.org/2000/svg" viewBox="0 0 81.45 103.8"><defs><style>.cls-1{fill:#fff;}</style></defs><title>Ativo 76</title><g id="Camada_2" data-name="Camada 2"><g id="Camada_2-2" data-name="Camada 2"><path class="cls-1" d="M81.45,66.9c0,21.9-17.85,36.9-40,36.9S0,90.45,0,52.35C0,15,20.25,0,39.3,0h4.35c24,0,34.8,9,34.8,18.75,0,5.7-4.8,10.5-12.15,10.5s-14.4-3-14.4-12.9c0-8.25-2.7-14.85-9-15.15H39.6c-7.8,0-13,6-13,18.3V40.95a25.8,25.8,0,0,1,19.35-8.1C65.7,32.85,81.45,44.85,81.45,66.9Zm-49.2,34.8c-4.35-2.4-6.9-6.75-6.9-13.2V19.2c0-8.25,2.7-14.55,7.35-17.4C16.5,5,1.2,19.8,1.2,52.35S15.3,98.4,32.25,101.7Zm-5.7-58.95V88.5c0,10,6.3,14.1,14.85,14.1s13.5-4,13.5-14.1V49.65c0-10.35-3.3-15.6-9-15.6A24.68,24.68,0,0,0,26.55,42.75Zm20.7-41.4c4,2.4,5.85,8.4,5.85,14.7,0,9,5.85,12,13.2,12s10.95-4.95,10.95-9.3C77.25,10.2,68.1,2.1,47.25,1.35Zm33,65.55c0-20.1-13.35-30.75-29.4-32.55,3.6,2.55,5.25,8.1,5.25,15.3V88.5c0,6.45-2.1,10.95-6,13.35C66.9,98.55,80.25,85.8,80.25,66.9Z"/></g></g></svg>