<svg xmlns="http://www.w3.org/2000/svg" viewBox="0 0 92.45 49.4"><defs><style>.cls-1{fill:#fff;}</style></defs><title>Ativo 1custo</title><g id="Camada_2" data-name="Camada 2"><g id="Camada_1-2" data-name="Camada 1"><path class="cls-1" d="M38.24,34c0,10.08-8.57,15.41-18.43,15.41H16.49C7.2,49.4,0,45.8,0,39,0,35.5,2.81,33.2,6.26,33.2c3.74,0,6.48,2.16,6.48,6.91s.22,8.57,5,8.71h2c2.66,0,5.69-.79,5.69-6.34V26c0-6-4.18-7.27-5.9-7.27-3.82,0-9,1.44-10.8,4.68H8.14c1.08-6.12,9-8.21,16.71-11.38a32.7,32.7,0,0,1-6.84.72H1.44V0H38.24c0,2.23-1.3,5-4,7.42C27.43,13.61,12.39,15,9.22,21.82c2.45-2.59,7.13-3.67,10.37-3.67C31,18.15,38.24,23.55,38.24,34ZM15,48.82c-2.74-1.37-2.88-4.9-2.88-8.57,0-4.18-2.16-6.48-5.9-6.48C2.81,33.77.58,36.15.58,39,.58,45.15,6.77,48.46,15,48.82Zm3-36.65C30.75,12.17,37.16,5.4,37.66.58H2V12.17ZM37.66,34c0-9.5-6.19-14.4-15.41-15.12,1.94.94,3.82,3,3.82,7.13V42.48c0,3.31-1.08,5.18-2.59,6C31.11,47.45,37.66,42.63,37.66,34Z"/><path class="cls-1" d="M92.45,48.82v.58H68.19v-.58h5.76V37.88H45.43L61,7.34c5.47,0,13.47-2,17.28-7.34h.65L78.7.43,60,37.3h14V21.6c3.31,0,8.86-.5,12.17-5.4h.58V48.82ZM77.11,2.23c-4.18,4-10.94,5.62-15.77,5.69l-15,29.38h13Zm9,46.59V17.21c-3.31,4.25-8.35,4.9-11.59,5V48.82Z"/></g></g></svg>