<svg xmlns="http://www.w3.org/2000/svg" viewBox="0 0 53.57 49.4"><defs><style>.cls-1{fill:#fff;}</style></defs><title>Ativo 2tempo</title><g id="Camada_2" data-name="Camada 2"><g id="Camada_1-2" data-name="Camada 1"><path class="cls-1" d="M24.27,48.82v.58H0v-.58H5.76V8.42A34.77,34.77,0,0,1,0,8.86V8.28C10.51,8.28,15.34,4.9,17.93,0h.58V48.82Zm-6.34,0V1.15c-2.16,3.53-5.62,6.19-11.59,7.2V48.82Z"/><path class="cls-1" d="M53.57,48.82v.58H29.3v-.58h5.76V8.42a34.77,34.77,0,0,1-5.76.43V8.28C39.82,8.28,44.64,4.9,47.23,0h.58V48.82Zm-6.34,0V1.15c-2.16,3.53-5.62,6.19-11.59,7.2V48.82Z"/></g></g></svg>