<?xml version="1.0" encoding="UTF-8" standalone="no"?><!DOCTYPE svg PUBLIC "-//W3C//DTD SVG 1.1//EN" "http://www.w3.org/Graphics/SVG/1.1/DTD/svg11.dtd"><svg width="100%" height="100%" viewBox="0 0 3466 1829" version="1.1" xmlns="http://www.w3.org/2000/svg" xmlns:xlink="http://www.w3.org/1999/xlink" xml:space="preserve" xmlns:serif="http://www.serif.com/" style="fill-rule:evenodd;clip-rule:evenodd;stroke-linejoin:round;stroke-miterlimit:2;"><rect id="Artboard19" x="0" y="0" width="3465.74" height="1828.3"/><path d="M584.213,1332.43l19.956,-51.422c0.855,-2.203 2.976,-3.655 5.339,-3.655c2.363,0 4.484,1.452 5.339,3.655l19.956,51.422l51.422,19.956c2.203,0.855 3.654,2.975 3.654,5.339c0,2.363 -1.451,4.483 -3.654,5.338l-51.422,19.956l-19.956,51.422c-0.855,2.203 -2.976,3.655 -5.339,3.655c-2.363,-0 -4.484,-1.452 -5.339,-3.655l-19.956,-51.422l-51.421,-19.956c-2.203,-0.855 -3.655,-2.975 -3.655,-5.338c-0,-2.364 1.452,-4.484 3.655,-5.339l51.421,-19.956Z" style="fill:#2bf9ed;"/><path d="M579.866,1328.09l-49.109,19.059c-4.368,1.694 -7.245,5.898 -7.245,10.583c-0,4.684 2.877,8.888 7.245,10.582c-0,0 49.109,19.059 49.109,19.059c0,0 19.059,49.11 19.059,49.11c1.695,4.367 5.899,7.245 10.583,7.245c4.685,-0 8.888,-2.878 10.583,-7.245c0,0 19.059,-49.11 19.059,-49.11c-0,0 49.11,-19.059 49.11,-19.059c4.367,-1.694 7.245,-5.898 7.245,-10.582c-0,-4.685 -2.878,-8.889 -7.245,-10.583c-0,-0 -49.11,-19.059 -49.11,-19.059c-0,-0 -19.059,-49.11 -19.059,-49.11c-1.695,-4.367 -5.898,-7.245 -10.583,-7.245c-4.684,0 -8.888,2.878 -10.583,7.245l-19.059,49.11Zm4.347,4.347l19.956,-51.422c0.855,-2.203 2.976,-3.655 5.339,-3.655c2.363,0 4.484,1.452 5.339,3.655l19.956,51.422l51.422,19.956c2.203,0.855 3.654,2.975 3.654,5.339c0,2.363 -1.451,4.483 -3.654,5.338l-51.422,19.956l-19.956,51.422c-0.855,2.203 -2.976,3.655 -5.339,3.655c-2.363,-0 -4.484,-1.452 -5.339,-3.655l-19.956,-51.422l-51.421,-19.956c-2.203,-0.855 -3.655,-2.975 -3.655,-5.338c-0,-2.364 1.452,-4.484 3.655,-5.339l51.421,-19.956Z"/><path d="M216.007,381.617l19.956,-51.422c0.855,-2.203 2.975,-3.654 5.339,-3.654c2.363,-0 4.483,1.451 5.338,3.654l19.956,51.422l51.422,19.956c2.203,0.855 3.655,2.976 3.655,5.339c-0,2.363 -1.452,4.484 -3.655,5.339l-51.422,19.956l-19.956,51.421c-0.855,2.203 -2.975,3.655 -5.338,3.655c-2.364,0 -4.484,-1.452 -5.339,-3.655l-19.956,-51.421l-51.422,-19.956c-2.203,-0.855 -3.655,-2.976 -3.655,-5.339c0,-2.363 1.452,-4.484 3.655,-5.339l51.422,-19.956Z" style="fill:#2bf9ed;"/><path d="M211.66,377.27l-49.11,19.059c-4.367,1.695 -7.245,5.898 -7.245,10.583c0,4.684 2.878,8.888 7.245,10.583c-0,-0 49.11,19.059 49.11,19.059c-0,-0 19.059,49.11 19.059,49.11c1.695,4.367 5.898,7.244 10.583,7.244c4.684,0 8.888,-2.877 10.582,-7.244c0,-0 19.059,-49.11 19.059,-49.11c0,-0 49.11,-19.059 49.11,-19.059c4.367,-1.695 7.245,-5.899 7.245,-10.583c0,-4.685 -2.878,-8.888 -7.245,-10.583c0,-0 -49.11,-19.059 -49.11,-19.059c0,0 -19.059,-49.11 -19.059,-49.11c-1.694,-4.367 -5.898,-7.245 -10.582,-7.245c-4.685,0 -8.888,2.878 -10.583,7.245l-19.059,49.11Zm4.347,4.347l19.956,-51.422c0.855,-2.203 2.975,-3.654 5.339,-3.654c2.363,-0 4.483,1.451 5.338,3.654l19.956,51.422l51.422,19.956c2.203,0.855 3.655,2.976 3.655,5.339c-0,2.363 -1.452,4.484 -3.655,5.339l-51.422,19.956l-19.956,51.421c-0.855,2.203 -2.975,3.655 -5.338,3.655c-2.364,0 -4.484,-1.452 -5.339,-3.655l-19.956,-51.421l-51.422,-19.956c-2.203,-0.855 -3.655,-2.976 -3.655,-5.339c0,-2.363 1.452,-4.484 3.655,-5.339l51.422,-19.956Z"/><path d="M287.761,1027.84l-20.707,41.927l40.599,23.204l-46.664,3.031l0.204,46.761l-25.956,-38.896l-40.395,23.557l20.707,-41.927l-40.599,-23.204l46.664,-3.031l-0.204,-46.761l25.956,38.896l40.395,-23.557Z" style="fill:#6891dc;"/><path d="M292.805,1030.33c1.099,-2.227 0.609,-4.91 -1.206,-6.604c-1.816,-1.694 -4.527,-1.997 -6.672,-0.747l-35.82,20.891c-0,-0 -23.018,-34.493 -23.018,-34.493c-1.378,-2.065 -3.948,-2.983 -6.322,-2.257c-2.375,0.725 -3.993,2.921 -3.982,5.404l0.181,41.467c-0,0 -41.38,2.688 -41.38,2.688c-2.478,0.161 -4.557,1.927 -5.116,4.346c-0.56,2.419 0.533,4.919 2.689,6.151l36.002,20.577c-0,-0 -18.363,37.179 -18.363,37.179c-1.099,2.227 -0.609,4.91 1.206,6.604c1.816,1.694 4.527,1.998 6.672,0.747l35.821,-20.89c-0,-0 23.017,34.492 23.017,34.492c1.378,2.065 3.948,2.983 6.322,2.257c2.375,-0.725 3.993,-2.921 3.982,-5.404l-0.181,-41.467c0,0 41.38,-2.687 41.38,-2.687c2.478,-0.161 4.557,-1.928 5.117,-4.347c0.559,-2.419 -0.534,-4.919 -2.69,-6.151l-36.002,-20.576c0,-0 18.363,-37.18 18.363,-37.18Zm-5.044,-2.491l-20.707,41.927l40.599,23.204l-46.664,3.031l0.204,46.761l-25.956,-38.896l-40.395,23.557l20.707,-41.927l-40.599,-23.204l46.664,-3.031l-0.204,-46.761l25.956,38.896l40.395,-23.557Z"/><path d="M936.237,257.115l-20.708,41.927l40.599,23.204l-46.664,3.031l0.205,46.762l-25.957,-38.897l-40.395,23.557l20.707,-41.927l-40.598,-23.204l46.663,-3.031l-0.204,-46.761l25.957,38.896l40.395,-23.557Z" style="fill:#6891dc;"/><path d="M941.28,259.606c1.1,-2.227 0.61,-4.91 -1.206,-6.604c-1.815,-1.694 -4.527,-1.997 -6.671,-0.747l-35.821,20.891c-0,-0 -23.018,-34.493 -23.018,-34.493c-1.378,-2.065 -3.947,-2.983 -6.322,-2.257c-2.375,0.725 -3.993,2.921 -3.982,5.404l0.181,41.467c0,0 -41.38,2.688 -41.38,2.688c-2.478,0.161 -4.557,1.927 -5.116,4.346c-0.559,2.419 0.534,4.919 2.689,6.151l36.002,20.577c0,-0 -18.362,37.18 -18.362,37.18c-1.1,2.226 -0.61,4.91 1.206,6.603c1.815,1.694 4.526,1.998 6.671,0.747l35.821,-20.89c-0,-0 23.017,34.492 23.017,34.492c1.379,2.065 3.948,2.983 6.323,2.257c2.374,-0.725 3.993,-2.921 3.982,-5.404l-0.181,-41.467c-0,0 41.38,-2.687 41.38,-2.687c2.477,-0.161 4.557,-1.928 5.116,-4.347c0.559,-2.419 -0.534,-4.919 -2.69,-6.151l-36.001,-20.576c-0,-0 18.362,-37.18 18.362,-37.18Zm-5.043,-2.491l-20.708,41.927l40.599,23.204l-46.664,3.031l0.205,46.762l-25.957,-38.897l-40.395,23.557l20.707,-41.927l-40.598,-23.204l46.663,-3.031l-0.204,-46.761l25.957,38.896l40.395,-23.557Z"/><path d="M1576.25,643.762l-10.777,33.543l32.378,13.892l-31.34,16.099l13.072,32.718l-33.544,-10.777l-13.892,32.377l-16.099,-31.339l-32.718,13.071l10.777,-33.543l-32.377,-13.892l31.339,-16.099l-13.071,-32.718l33.543,10.777l13.893,-32.377l16.098,31.339l32.718,-13.071Z" style="fill:#fee934;"/><path d="M1581.6,645.482c0.667,-2.074 0.075,-4.347 -1.518,-5.833c-1.593,-1.487 -3.901,-1.92 -5.924,-1.111l-27.966,11.172c0,0 -13.76,-26.787 -13.76,-26.787c-0.995,-1.938 -3.021,-3.127 -5.198,-3.051c-2.178,0.075 -4.116,1.401 -4.975,3.403l-11.874,27.675c-0,0 -28.672,-9.211 -28.672,-9.211c-2.074,-0.667 -4.347,-0.075 -5.833,1.518c-1.487,1.593 -1.919,3.901 -1.111,5.924l11.173,27.966c-0,-0 -26.788,13.76 -26.788,13.76c-1.938,0.995 -3.127,3.021 -3.051,5.198c0.075,2.178 1.401,4.116 3.404,4.975l27.674,11.874c0,0 -9.211,28.672 -9.211,28.672c-0.667,2.074 -0.075,4.347 1.518,5.833c1.593,1.487 3.901,1.92 5.924,1.111l27.966,-11.172c-0,-0 13.76,26.787 13.76,26.787c0.996,1.938 3.021,3.127 5.198,3.051c2.178,-0.075 4.116,-1.401 4.975,-3.403l11.875,-27.675c-0,-0 28.671,9.211 28.671,9.211c2.074,0.667 4.347,0.075 5.833,-1.518c1.487,-1.593 1.92,-3.901 1.111,-5.924l-11.172,-27.966c-0,0 26.787,-13.76 26.787,-13.76c1.938,-0.995 3.127,-3.021 3.051,-5.198c-0.075,-2.178 -1.401,-4.116 -3.403,-4.975l-27.675,-11.874c-0,-0 9.211,-28.672 9.211,-28.672Zm-5.355,-1.72l-10.777,33.543l32.378,13.892l-31.34,16.099l13.072,32.718l-33.544,-10.777l-13.892,32.377l-16.099,-31.339l-32.718,13.071l10.777,-33.543l-32.377,-13.892l31.339,-16.099l-13.071,-32.718l33.543,10.777l13.893,-32.377l16.098,31.339l32.718,-13.071Z"/><path d="M1717.08,149.267l11.677,-28.729c0.679,-1.673 2.305,-2.767 4.111,-2.767c1.806,0 3.431,1.094 4.111,2.767l11.677,28.729l28.729,11.677c1.673,0.68 2.767,2.305 2.767,4.111c-0,1.806 -1.094,3.432 -2.767,4.112l-28.729,11.676l-11.677,28.729c-0.68,1.673 -2.305,2.767 -4.111,2.767c-1.806,0 -3.432,-1.094 -4.111,-2.767l-11.677,-28.729l-28.729,-11.676c-1.673,-0.68 -2.767,-2.306 -2.767,-4.112c-0,-1.806 1.094,-3.431 2.767,-4.111l28.729,-11.677Z" style="fill:#fff;"/><path d="M1712.76,144.95l-26.529,10.783c-3.793,1.541 -6.274,5.228 -6.274,9.322c-0,4.095 2.481,7.781 6.274,9.323c-0,-0 26.529,10.782 26.529,10.782c0.001,0.001 10.783,26.53 10.783,26.53c1.542,3.793 5.228,6.274 9.323,6.274c4.094,0 7.781,-2.481 9.323,-6.274c-0,0 10.782,-26.529 10.782,-26.529c0,-0.001 26.53,-10.783 26.53,-10.783c3.793,-1.542 6.274,-5.228 6.274,-9.323c0,-4.094 -2.481,-7.781 -6.274,-9.322c-0,-0 -26.53,-10.783 -26.53,-10.783c0,-0 -10.782,-26.53 -10.782,-26.53c-1.542,-3.793 -5.229,-6.274 -9.323,-6.274c-4.095,-0 -7.781,2.481 -9.323,6.274l-10.783,26.53Zm4.318,4.317l11.677,-28.729c0.679,-1.673 2.305,-2.767 4.111,-2.767c1.806,0 3.431,1.094 4.111,2.767l11.677,28.729l28.729,11.677c1.673,0.68 2.767,2.305 2.767,4.111c-0,1.806 -1.094,3.432 -2.767,4.112l-28.729,11.676l-11.677,28.729c-0.68,1.673 -2.305,2.767 -4.111,2.767c-1.806,0 -3.432,-1.094 -4.111,-2.767l-11.677,-28.729l-28.729,-11.676c-1.673,-0.68 -2.767,-2.306 -2.767,-4.112c-0,-1.806 1.094,-3.431 2.767,-4.111l28.729,-11.677Z"/><path d="M2753.12,243.835l11.676,-28.729c0.68,-1.673 2.306,-2.767 4.112,-2.767c1.805,0 3.431,1.094 4.111,2.767l11.677,28.729l28.729,11.677c1.672,0.68 2.767,2.305 2.767,4.111c-0,1.806 -1.095,3.432 -2.767,4.111l-28.729,11.677l-11.677,28.729c-0.68,1.673 -2.306,2.767 -4.111,2.767c-1.806,0 -3.432,-1.094 -4.112,-2.767l-11.676,-28.729l-28.729,-11.677c-1.673,-0.679 -2.767,-2.305 -2.767,-4.111c-0,-1.806 1.094,-3.431 2.767,-4.111l28.729,-11.677Z" style="fill:#fff;"/><path d="M2748.8,239.518l-26.529,10.782c-3.794,1.542 -6.275,5.229 -6.275,9.323c0,4.095 2.481,7.781 6.275,9.323c-0,-0 26.529,10.782 26.529,10.782c0,0.001 10.783,26.53 10.783,26.53c1.542,3.793 5.228,6.274 9.323,6.274c4.094,0 7.781,-2.481 9.322,-6.274c0,0 10.783,-26.529 10.783,-26.529c0,-0.001 26.53,-10.783 26.53,-10.783c3.793,-1.542 6.274,-5.228 6.274,-9.323c-0,-4.094 -2.481,-7.781 -6.274,-9.323c-0,0 -26.53,-10.782 -26.53,-10.782c-0,-0 -10.783,-26.53 -10.783,-26.53c-1.541,-3.793 -5.228,-6.274 -9.322,-6.274c-4.095,-0 -7.781,2.481 -9.323,6.274l-10.783,26.53Zm4.318,4.317l11.676,-28.729c0.68,-1.673 2.306,-2.767 4.112,-2.767c1.805,0 3.431,1.094 4.111,2.767l11.677,28.729l28.729,11.677c1.672,0.68 2.767,2.305 2.767,4.111c-0,1.806 -1.095,3.432 -2.767,4.111l-28.729,11.677l-11.677,28.729c-0.68,1.673 -2.306,2.767 -4.111,2.767c-1.806,0 -3.432,-1.094 -4.112,-2.767l-11.676,-28.729l-28.729,-11.677c-1.673,-0.679 -2.767,-2.305 -2.767,-4.111c-0,-1.806 1.094,-3.431 2.767,-4.111l28.729,-11.677Z"/><path d="M2961.58,1263.43l11.677,-28.729c0.679,-1.673 2.305,-2.767 4.111,-2.767c1.806,0 3.431,1.094 4.111,2.767l11.677,28.729l28.729,11.677c1.673,0.68 2.767,2.305 2.767,4.111c-0,1.806 -1.094,3.431 -2.767,4.111l-28.729,11.677l-11.677,28.729c-0.68,1.673 -2.305,2.767 -4.111,2.767c-1.806,-0 -3.432,-1.094 -4.111,-2.767l-11.677,-28.729l-28.729,-11.677c-1.673,-0.68 -2.767,-2.305 -2.767,-4.111c-0,-1.806 1.094,-3.431 2.767,-4.111l28.729,-11.677Z" style="fill:#fff;"/><path d="M2957.26,1259.12l-26.529,10.782c-3.793,1.542 -6.274,5.228 -6.274,9.323c-0,4.095 2.481,7.781 6.274,9.323c-0,-0 26.529,10.782 26.529,10.782c0.001,0 10.783,26.53 10.783,26.53c1.542,3.793 5.228,6.274 9.323,6.274c4.094,0 7.781,-2.481 9.323,-6.274c-0,0 10.782,-26.53 10.782,-26.53c0,0 26.53,-10.782 26.53,-10.782c3.793,-1.542 6.274,-5.228 6.274,-9.323c0,-4.095 -2.481,-7.781 -6.274,-9.323c-0,0 -26.53,-10.782 -26.53,-10.782c0,-0 -10.782,-26.53 -10.782,-26.53c-1.542,-3.793 -5.229,-6.274 -9.323,-6.274c-4.095,-0 -7.781,2.481 -9.323,6.274l-10.783,26.53Zm4.318,4.317l11.677,-28.729c0.679,-1.673 2.305,-2.767 4.111,-2.767c1.806,0 3.431,1.094 4.111,2.767l11.677,28.729l28.729,11.677c1.673,0.68 2.767,2.305 2.767,4.111c-0,1.806 -1.094,3.431 -2.767,4.111l-28.729,11.677l-11.677,28.729c-0.68,1.673 -2.305,2.767 -4.111,2.767c-1.806,-0 -3.432,-1.094 -4.111,-2.767l-11.677,-28.729l-28.729,-11.677c-1.673,-0.68 -2.767,-2.305 -2.767,-4.111c-0,-1.806 1.094,-3.431 2.767,-4.111l28.729,-11.677Z"/><path d="M593.72,694.183l11.677,-28.729c0.68,-1.673 2.305,-2.767 4.111,-2.767c1.806,-0 3.432,1.094 4.112,2.767l11.676,28.729l28.729,11.676c1.673,0.68 2.767,2.306 2.767,4.112c0,1.805 -1.094,3.431 -2.767,4.111l-28.729,11.677l-11.676,28.729c-0.68,1.673 -2.306,2.767 -4.112,2.767c-1.806,-0 -3.431,-1.094 -4.111,-2.767l-11.677,-28.729l-28.729,-11.677c-1.673,-0.68 -2.767,-2.306 -2.767,-4.111c0,-1.806 1.094,-3.432 2.767,-4.112l28.729,-11.676Z" style="fill:#fff;"/><path d="M589.403,689.865l-26.53,10.783c-3.793,1.542 -6.274,5.228 -6.274,9.323c-0,4.094 2.481,7.781 6.274,9.322c0,0 26.53,10.783 26.53,10.783c-0,0 10.783,26.53 10.783,26.53c1.541,3.793 5.228,6.274 9.322,6.274c4.095,-0 7.781,-2.481 9.323,-6.274c-0,-0 10.782,-26.53 10.782,-26.53c0.001,0 26.53,-10.783 26.53,-10.783c3.793,-1.541 6.274,-5.228 6.274,-9.322c0,-4.095 -2.481,-7.781 -6.274,-9.323c0,0 -26.529,-10.783 -26.529,-10.783c-0.001,0 -10.783,-26.529 -10.783,-26.529c-1.542,-3.794 -5.228,-6.275 -9.323,-6.275c-4.094,0 -7.781,2.481 -9.322,6.275l-10.783,26.529Zm4.317,4.318l11.677,-28.729c0.68,-1.673 2.305,-2.767 4.111,-2.767c1.806,-0 3.432,1.094 4.112,2.767l11.676,28.729l28.729,11.676c1.673,0.68 2.767,2.306 2.767,4.112c0,1.805 -1.094,3.431 -2.767,4.111l-28.729,11.677l-11.676,28.729c-0.68,1.673 -2.306,2.767 -4.112,2.767c-1.806,-0 -3.431,-1.094 -4.111,-2.767l-11.677,-28.729l-28.729,-11.677c-1.673,-0.68 -2.767,-2.306 -2.767,-4.111c0,-1.806 1.094,-3.432 2.767,-4.112l28.729,-11.676Z"/><path d="M2312.43,1422.18l19.957,-51.422c0.855,-2.203 2.975,-3.654 5.338,-3.654c2.363,-0 4.484,1.451 5.339,3.654l19.956,51.422l51.422,19.956c2.203,0.855 3.654,2.976 3.654,5.339c0,2.363 -1.451,4.483 -3.654,5.338l-51.422,19.957l-19.956,51.421c-0.855,2.203 -2.976,3.655 -5.339,3.655c-2.363,-0 -4.483,-1.452 -5.338,-3.655l-19.957,-51.421l-51.421,-19.957c-2.203,-0.855 -3.655,-2.975 -3.655,-5.338c0,-2.363 1.452,-4.484 3.655,-5.339l51.421,-19.956Z" style="fill:#cba3cc;"/><path d="M2308.08,1417.83l-49.109,19.059c-4.368,1.695 -7.245,5.898 -7.245,10.583c-0,4.684 2.877,8.888 7.245,10.583c-0,-0 49.109,19.059 49.109,19.059c0,-0 19.059,49.109 19.059,49.109c1.695,4.368 5.899,7.245 10.583,7.245c4.685,0 8.888,-2.877 10.583,-7.245c0,0 19.059,-49.109 19.059,-49.109c-0,-0 49.11,-19.059 49.11,-19.059c4.367,-1.695 7.245,-5.899 7.245,-10.583c-0,-4.685 -2.878,-8.888 -7.245,-10.583c-0,-0 -49.11,-19.059 -49.11,-19.059c0,0 -19.059,-49.11 -19.059,-49.11c-1.695,-4.367 -5.898,-7.245 -10.583,-7.245c-4.684,0 -8.888,2.878 -10.583,7.245l-19.059,49.11Zm4.347,4.347l19.957,-51.422c0.855,-2.203 2.975,-3.654 5.338,-3.654c2.363,-0 4.484,1.451 5.339,3.654l19.956,51.422l51.422,19.956c2.203,0.855 3.654,2.976 3.654,5.339c0,2.363 -1.451,4.483 -3.654,5.338l-51.422,19.957l-19.956,51.421c-0.855,2.203 -2.976,3.655 -5.339,3.655c-2.363,-0 -4.483,-1.452 -5.338,-3.655l-19.957,-51.421l-51.421,-19.957c-2.203,-0.855 -3.655,-2.975 -3.655,-5.338c0,-2.363 1.452,-4.484 3.655,-5.339l51.421,-19.956Z"/><path d="M1767.06,1225.57l12.24,-31.539c0.621,-1.601 2.162,-2.655 3.879,-2.655c1.717,-0 3.257,1.054 3.878,2.655l12.24,31.539l31.539,12.239c1.601,0.622 2.655,2.162 2.655,3.879c0,1.717 -1.054,3.258 -2.655,3.879l-31.539,12.24l-12.24,31.539c-0.621,1.6 -2.161,2.655 -3.878,2.655c-1.717,-0 -3.258,-1.055 -3.879,-2.655l-12.24,-31.539l-31.539,-12.24c-1.6,-0.621 -2.655,-2.162 -2.655,-3.879c-0,-1.717 1.055,-3.257 2.655,-3.879l31.539,-12.239Z" style="fill:#fff;"/><path d="M1762.72,1221.22l-29.227,11.342c-3.765,1.461 -6.245,5.085 -6.245,9.123c-0,4.039 2.48,7.662 6.245,9.123c0,0 29.227,11.343 29.227,11.343c-0,-0 11.343,29.227 11.343,29.227c1.461,3.765 5.084,6.245 9.123,6.245c4.038,0 7.661,-2.48 9.123,-6.245c-0,-0 11.342,-29.227 11.342,-29.227c0,-0 29.227,-11.343 29.227,-11.343c3.765,-1.461 6.245,-5.084 6.245,-9.123c0,-4.038 -2.48,-7.662 -6.245,-9.123c0,0 -29.227,-11.342 -29.227,-11.342c0,-0 -11.342,-29.227 -11.342,-29.227c-1.462,-3.765 -5.085,-6.246 -9.123,-6.246c-4.039,0 -7.662,2.481 -9.123,6.246l-11.343,29.227Zm4.347,4.347l12.24,-31.539c0.621,-1.601 2.162,-2.655 3.879,-2.655c1.717,-0 3.257,1.054 3.878,2.655l12.24,31.539l31.539,12.239c1.601,0.622 2.655,2.162 2.655,3.879c0,1.717 -1.054,3.258 -2.655,3.879l-31.539,12.24l-12.24,31.539c-0.621,1.6 -2.161,2.655 -3.878,2.655c-1.717,-0 -3.258,-1.055 -3.879,-2.655l-12.24,-31.539l-31.539,-12.24c-1.6,-0.621 -2.655,-2.162 -2.655,-3.879c-0,-1.717 1.055,-3.257 2.655,-3.879l31.539,-12.239Z"/><path d="M216.175,1551.23l12.24,-31.539c0.621,-1.601 2.162,-2.655 3.879,-2.655c1.717,-0 3.257,1.054 3.879,2.655l12.239,31.539l31.539,12.24c1.601,0.621 2.656,2.161 2.656,3.878c-0,1.717 -1.055,3.258 -2.656,3.879l-31.539,12.24l-12.239,31.539c-0.622,1.6 -2.162,2.655 -3.879,2.655c-1.717,-0 -3.258,-1.055 -3.879,-2.655l-12.24,-31.539l-31.538,-12.24c-1.601,-0.621 -2.656,-2.162 -2.656,-3.879c0,-1.717 1.055,-3.257 2.656,-3.878l31.538,-12.24Z" style="fill:#fff;"/><path d="M211.828,1546.88l-29.227,11.342c-3.764,1.461 -6.245,5.085 -6.245,9.123c-0,4.039 2.481,7.662 6.245,9.123c0,0 29.227,11.343 29.227,11.343c0,-0 11.343,29.227 11.343,29.227c1.461,3.765 5.085,6.245 9.123,6.245c4.038,0 7.662,-2.48 9.123,-6.245c-0,-0 11.342,-29.227 11.342,-29.227c0,-0 29.227,-11.343 29.227,-11.343c3.765,-1.461 6.246,-5.084 6.246,-9.123c-0,-4.038 -2.481,-7.662 -6.246,-9.123c0,0 -29.227,-11.342 -29.227,-11.342c0,-0 -11.342,-29.227 -11.342,-29.227c-1.461,-3.765 -5.085,-6.246 -9.123,-6.246c-4.038,0 -7.662,2.481 -9.123,6.246l-11.343,29.227Zm4.347,4.347l12.24,-31.539c0.621,-1.601 2.162,-2.655 3.879,-2.655c1.717,-0 3.257,1.054 3.879,2.655l12.239,31.539l31.539,12.24c1.601,0.621 2.656,2.161 2.656,3.878c-0,1.717 -1.055,3.258 -2.656,3.879l-31.539,12.24l-12.239,31.539c-0.622,1.6 -2.162,2.655 -3.879,2.655c-1.717,-0 -3.258,-1.055 -3.879,-2.655l-12.24,-31.539l-31.538,-12.24c-1.601,-0.621 -2.656,-2.162 -2.656,-3.879c0,-1.717 1.055,-3.257 2.656,-3.878l31.538,-12.24Z"/><path d="M1434.51,1503.32l12.24,-31.538c0.621,-1.601 2.162,-2.656 3.879,-2.656c1.717,0 3.258,1.055 3.879,2.656l12.24,31.538l31.538,12.24c1.601,0.621 2.656,2.162 2.656,3.879c-0,1.717 -1.055,3.257 -2.656,3.879l-31.538,12.239l-12.24,31.539c-0.621,1.601 -2.162,2.655 -3.879,2.655c-1.717,0 -3.258,-1.054 -3.879,-2.655l-12.24,-31.539l-31.538,-12.239c-1.601,-0.622 -2.656,-2.162 -2.656,-3.879c0,-1.717 1.055,-3.258 2.656,-3.879l31.538,-12.24Z" style="fill:#fc3a8e;"/><path d="M1430.16,1498.97l-29.226,11.343c-3.765,1.461 -6.246,5.084 -6.246,9.123c0,4.038 2.481,7.662 6.246,9.123c-0,-0 29.226,11.342 29.226,11.342c0,0 11.343,29.227 11.343,29.227c1.461,3.765 5.085,6.246 9.123,6.246c4.038,-0 7.662,-2.481 9.123,-6.246c0,0 11.343,-29.227 11.343,-29.227c-0,0 29.227,-11.342 29.227,-11.342c3.764,-1.461 6.245,-5.085 6.245,-9.123c-0,-4.039 -2.481,-7.662 -6.245,-9.123c-0,-0 -29.227,-11.343 -29.227,-11.343c-0,0 -11.343,-29.227 -11.343,-29.227c-1.461,-3.764 -5.085,-6.245 -9.123,-6.245c-4.038,-0 -7.662,2.481 -9.123,6.245l-11.343,29.227Zm4.347,4.347l12.24,-31.538c0.621,-1.601 2.162,-2.656 3.879,-2.656c1.717,0 3.258,1.055 3.879,2.656l12.24,31.538l31.538,12.24c1.601,0.621 2.656,2.162 2.656,3.879c-0,1.717 -1.055,3.257 -2.656,3.879l-31.538,12.239l-12.24,31.539c-0.621,1.601 -2.162,2.655 -3.879,2.655c-1.717,0 -3.258,-1.054 -3.879,-2.655l-12.24,-31.539l-31.538,-12.239c-1.601,-0.622 -2.656,-2.162 -2.656,-3.879c0,-1.717 1.055,-3.258 2.656,-3.879l31.538,-12.24Z"/><path d="M1043.35,1407.58l-10.777,33.544l32.378,13.892l-31.34,16.099l13.072,32.718l-33.544,-10.777l-13.892,32.377l-16.099,-31.339l-32.717,13.071l10.777,-33.543l-32.378,-13.893l31.339,-16.098l-13.071,-32.718l33.543,10.777l13.893,-32.378l16.098,31.34l32.718,-13.072Z" style="fill:#fee934;"/><path d="M1048.7,1409.3c0.666,-2.074 0.075,-4.347 -1.518,-5.833c-1.594,-1.487 -3.902,-1.92 -5.925,-1.111l-27.966,11.172c0,0 -13.76,-26.787 -13.76,-26.787c-0.995,-1.938 -3.02,-3.127 -5.198,-3.051c-2.178,0.075 -4.116,1.401 -4.975,3.403c0,0 -11.874,27.675 -11.874,27.675c-0,0 -28.671,-9.211 -28.671,-9.211c-2.075,-0.667 -4.348,-0.075 -5.834,1.518c-1.486,1.593 -1.919,3.901 -1.111,5.924l11.173,27.966c-0,-0 -26.787,13.76 -26.787,13.76c-1.939,0.995 -3.127,3.021 -3.052,5.198c0.075,2.178 1.401,4.116 3.404,4.975l27.675,11.874c-0,0 -9.212,28.672 -9.212,28.672c-0.666,2.074 -0.075,4.347 1.518,5.833c1.593,1.487 3.901,1.919 5.925,1.111l27.965,-11.173c0,0 13.76,26.788 13.76,26.788c0.996,1.938 3.021,3.127 5.199,3.051c2.177,-0.075 4.115,-1.401 4.974,-3.404c0,0 11.875,-27.674 11.875,-27.674c-0,-0 28.671,9.211 28.671,9.211c2.074,0.667 4.347,0.075 5.834,-1.518c1.486,-1.593 1.919,-3.901 1.11,-5.924l-11.172,-27.966c-0,0 26.787,-13.76 26.787,-13.76c1.938,-0.996 3.127,-3.021 3.052,-5.198c-0.076,-2.178 -1.402,-4.116 -3.404,-4.975l-27.675,-11.875c0,0 9.212,-28.671 9.212,-28.671Zm-5.356,-1.721l-10.777,33.544l32.378,13.892l-31.34,16.099l13.072,32.718l-33.544,-10.777l-13.892,32.377l-16.099,-31.339l-32.717,13.071l10.777,-33.543l-32.378,-13.893l31.339,-16.098l-13.071,-32.718l33.543,10.777l13.893,-32.378l16.098,31.34l32.718,-13.072Z"/><path d="M1985.71,875.194l10.544,-27.171c0.452,-1.164 1.573,-1.931 2.821,-1.931c1.249,-0 2.369,0.767 2.821,1.931l10.545,27.171l27.171,10.545c1.164,0.452 1.931,1.572 1.931,2.821c0,1.248 -0.767,2.369 -1.931,2.821l-27.171,10.544l-10.545,27.172c-0.452,1.164 -1.572,1.931 -2.821,1.931c-1.248,-0 -2.369,-0.767 -2.821,-1.931l-10.544,-27.172l-27.172,-10.544c-1.164,-0.452 -1.931,-1.573 -1.931,-2.821c0,-1.249 0.767,-2.369 1.931,-2.821l27.172,-10.545Z" style="fill:#cba3cc;"/><path d="M1981.36,870.847l-24.859,9.648c-3.328,1.291 -5.521,4.495 -5.521,8.065c-0,3.57 2.193,6.773 5.521,8.065c0,-0 24.859,9.647 24.859,9.647c0.001,0.001 9.648,24.86 9.648,24.86c1.292,3.328 4.495,5.521 8.065,5.521c3.57,0 6.774,-2.193 8.065,-5.521c0,-0 9.648,-24.859 9.648,-24.859c0,-0.001 24.859,-9.648 24.859,-9.648c3.329,-1.292 5.522,-4.495 5.522,-8.065c-0,-3.57 -2.193,-6.774 -5.522,-8.065c0,-0 -24.859,-9.648 -24.859,-9.648c0,-0 -9.648,-24.859 -9.648,-24.859c-1.291,-3.329 -4.495,-5.522 -8.065,-5.522c-3.57,0 -6.773,2.193 -8.065,5.522l-9.648,24.859Zm4.348,4.347l10.544,-27.171c0.452,-1.164 1.573,-1.931 2.821,-1.931c1.249,-0 2.369,0.767 2.821,1.931l10.545,27.171l27.171,10.545c1.164,0.452 1.931,1.572 1.931,2.821c0,1.248 -0.767,2.369 -1.931,2.821l-27.171,10.544l-10.545,27.172c-0.452,1.164 -1.572,1.931 -2.821,1.931c-1.248,-0 -2.369,-0.767 -2.821,-1.931l-10.544,-27.172l-27.172,-10.544c-1.164,-0.452 -1.931,-1.573 -1.931,-2.821c0,-1.249 0.767,-2.369 1.931,-2.821l27.172,-10.545Z"/><path d="M3175.9,1438.1l1.536,46.737l46.744,1.292l-39.708,24.699l22.253,41.128l-41.243,-22.039l-24.492,39.835l-1.535,-46.736l-46.745,-1.293l39.708,-24.698l-22.253,-41.128l41.243,22.038l24.492,-39.835Z" style="fill:#2bf9ed;"/><path d="M3181.53,1437.91c-0.081,-2.482 -1.78,-4.616 -4.18,-5.253c-2.4,-0.636 -4.934,0.376 -6.234,2.492l-21.719,35.324c0,0 -36.573,-19.543 -36.573,-19.543c-2.19,-1.17 -4.888,-0.766 -6.639,0.994c-1.751,1.761 -2.141,4.461 -0.959,6.645l19.733,36.471c-0,-0 -35.212,21.901 -35.212,21.901c-2.108,1.312 -3.107,3.85 -2.458,6.247c0.648,2.397 2.792,4.084 5.274,4.153l41.451,1.146c0,0 1.362,41.445 1.362,41.445c0.082,2.482 1.781,4.616 4.18,5.253c2.4,0.636 4.934,-0.376 6.234,-2.491l21.719,-35.325c-0,-0 36.573,19.543 36.573,19.543c2.19,1.17 4.888,0.766 6.639,-0.994c1.751,-1.76 2.141,-4.461 0.959,-6.644l-19.733,-36.471c0,-0 35.212,-21.902 35.212,-21.902c2.108,-1.312 3.107,-3.85 2.459,-6.247c-0.649,-2.396 -2.793,-4.084 -5.275,-4.153l-41.451,-1.146c-0,-0 -1.362,-41.445 -1.362,-41.445Zm-5.622,0.185l1.536,46.737l46.744,1.292l-39.708,24.699l22.253,41.128l-41.243,-22.039l-24.492,39.835l-1.535,-46.736l-46.745,-1.293l39.708,-24.698l-22.253,-41.128l41.243,22.038l24.492,-39.835Z"/><path d="M2581.7,888.56l1.536,46.737l46.744,1.292l-39.707,24.699l22.252,41.128l-41.243,-22.039l-24.491,39.835l-1.536,-46.736l-46.744,-1.293l39.707,-24.698l-22.253,-41.128l41.244,22.038l24.491,-39.835Z" style="fill:#2bf9ed;"/><path d="M2587.32,888.375c-0.081,-2.482 -1.78,-4.616 -4.18,-5.253c-2.4,-0.636 -4.933,0.376 -6.234,2.492l-21.718,35.324c-0,0 -36.573,-19.543 -36.573,-19.543c-2.19,-1.17 -4.888,-0.766 -6.639,0.994c-1.752,1.761 -2.142,4.461 -0.96,6.645l19.733,36.471c0,-0 -35.211,21.901 -35.211,21.901c-2.109,1.312 -3.108,3.85 -2.459,6.247c0.649,2.397 2.792,4.084 5.274,4.153l41.452,1.146c-0,0 1.361,41.445 1.361,41.445c0.082,2.482 1.781,4.616 4.181,5.253c2.4,0.636 4.933,-0.376 6.234,-2.491l21.718,-35.325c-0,-0 36.573,19.543 36.573,19.543c2.19,1.17 4.888,0.766 6.639,-0.994c1.751,-1.76 2.141,-4.461 0.96,-6.644l-19.733,-36.471c-0,-0 35.211,-21.902 35.211,-21.902c2.109,-1.312 3.108,-3.85 2.459,-6.247c-0.649,-2.396 -2.792,-4.084 -5.274,-4.153l-41.452,-1.146c0,-0 -1.362,-41.445 -1.362,-41.445Zm-5.622,0.185l1.536,46.737l46.744,1.292l-39.707,24.699l22.252,41.128l-41.243,-22.039l-24.491,39.835l-1.536,-46.736l-46.744,-1.293l39.707,-24.698l-22.253,-41.128l41.244,22.038l24.491,-39.835Z"/><path d="M2371.87,507.641l-10.777,33.543l32.378,13.892l-31.339,16.099l13.071,32.718l-33.544,-10.777l-13.892,32.378l-16.098,-31.34l-32.718,13.071l10.777,-33.543l-32.378,-13.892l31.339,-16.099l-13.071,-32.718l33.544,10.777l13.892,-32.377l16.098,31.339l32.718,-13.071Z" style="fill:#fc3a8e;"/><path d="M2377.23,509.361c0.666,-2.074 0.075,-4.347 -1.518,-5.833c-1.593,-1.487 -3.901,-1.919 -5.925,-1.111l-27.965,11.172c-0,0 -13.76,-26.787 -13.76,-26.787c-0.996,-1.938 -3.021,-3.127 -5.199,-3.051c-2.177,0.075 -4.115,1.401 -4.975,3.404c0,-0 -11.874,27.674 -11.874,27.674c0,0 -28.671,-9.211 -28.671,-9.211c-2.075,-0.667 -4.347,-0.075 -5.834,1.518c-1.486,1.593 -1.919,3.901 -1.111,5.924l11.173,27.966c-0,-0 -26.787,13.76 -26.787,13.76c-1.938,0.996 -3.127,3.021 -3.052,5.198c0.076,2.178 1.402,4.116 3.404,4.975l27.675,11.874c-0,0 -9.212,28.672 -9.212,28.672c-0.666,2.074 -0.075,4.347 1.518,5.833c1.593,1.487 3.901,1.92 5.925,1.111l27.965,-11.172c0,-0 13.76,26.787 13.76,26.787c0.996,1.938 3.021,3.127 5.199,3.051c2.177,-0.075 4.115,-1.401 4.975,-3.403l11.874,-27.675c-0,-0 28.671,9.211 28.671,9.211c2.075,0.667 4.347,0.075 5.834,-1.518c1.486,-1.593 1.919,-3.901 1.111,-5.924l-11.173,-27.966c0,0 26.787,-13.76 26.787,-13.76c1.938,-0.995 3.127,-3.021 3.052,-5.198c-0.076,-2.178 -1.402,-4.116 -3.404,-4.975l-27.675,-11.874c0,-0 9.212,-28.672 9.212,-28.672Zm-5.356,-1.72l-10.777,33.543l32.378,13.892l-31.339,16.099l13.071,32.718l-33.544,-10.777l-13.892,32.378l-16.098,-31.34l-32.718,13.071l10.777,-33.543l-32.378,-13.892l31.339,-16.099l-13.071,-32.718l33.544,10.777l13.892,-32.377l16.098,31.339l32.718,-13.071Z"/><path d="M1062.82,796.299l-10.777,33.544l32.378,13.892l-31.34,16.098l13.071,32.718l-33.543,-10.777l-13.892,32.378l-16.099,-31.339l-32.718,13.071l10.777,-33.544l-32.377,-13.892l31.339,-16.098l-13.071,-32.718l33.543,10.777l13.892,-32.378l16.099,31.339l32.718,-13.071Z" style="fill:#fc3a8e;"/><path d="M1068.17,798.02c0.667,-2.075 0.075,-4.347 -1.518,-5.834c-1.593,-1.486 -3.901,-1.919 -5.924,-1.111l-27.966,11.173c0,0 -13.76,-26.787 -13.76,-26.787c-0.995,-1.938 -3.021,-3.127 -5.198,-3.052c-2.178,0.076 -4.116,1.402 -4.975,3.404l-11.874,27.675c-0,-0 -28.672,-9.212 -28.672,-9.212c-2.074,-0.666 -4.347,-0.075 -5.833,1.518c-1.487,1.593 -1.919,3.902 -1.111,5.925l11.173,27.965c-0,0 -26.788,13.761 -26.788,13.761c-1.938,0.995 -3.127,3.02 -3.051,5.198c0.075,2.177 1.401,4.116 3.404,4.975l27.674,11.874c0,0 -9.211,28.671 -9.211,28.671c-0.667,2.075 -0.075,4.347 1.518,5.834c1.593,1.486 3.901,1.919 5.924,1.111l27.966,-11.173c-0,0 13.76,26.787 13.76,26.787c0.996,1.938 3.021,3.127 5.198,3.052c2.178,-0.075 4.116,-1.402 4.975,-3.404l11.875,-27.675c-0.001,0 28.671,9.212 28.671,9.212c2.074,0.666 4.347,0.075 5.833,-1.518c1.487,-1.593 1.92,-3.901 1.111,-5.925l-11.172,-27.965c-0,-0 26.787,-13.76 26.787,-13.76c1.938,-0.996 3.127,-3.021 3.051,-5.199c-0.075,-2.177 -1.401,-4.115 -3.403,-4.974l-27.675,-11.875c-0,0 9.211,-28.671 9.211,-28.671Zm-5.355,-1.721l-10.777,33.544l32.378,13.892l-31.34,16.098l13.071,32.718l-33.543,-10.777l-13.892,32.378l-16.099,-31.339l-32.718,13.071l10.777,-33.544l-32.377,-13.892l31.339,-16.098l-13.071,-32.718l33.543,10.777l13.892,-32.378l16.099,31.339l32.718,-13.071Z"/><path d="M3071.11,728.239l-10.777,33.543l32.377,13.893l-31.339,16.098l13.071,32.718l-33.543,-10.777l-13.893,32.378l-16.098,-31.34l-32.718,13.072l10.777,-33.544l-32.378,-13.892l31.34,-16.099l-13.071,-32.718l33.543,10.777l13.892,-32.377l16.099,31.339l32.718,-13.071Z" style="fill:#cba3cc;"/><path d="M3076.47,729.959c0.667,-2.074 0.075,-4.347 -1.518,-5.833c-1.593,-1.487 -3.901,-1.919 -5.924,-1.111l-27.966,11.173c0,-0 -13.76,-26.788 -13.76,-26.788c-0.996,-1.938 -3.021,-3.127 -5.198,-3.051c-2.178,0.075 -4.116,1.401 -4.975,3.404l-11.875,27.674c0,0 -28.671,-9.211 -28.671,-9.211c-2.074,-0.667 -4.347,-0.075 -5.833,1.518c-1.487,1.593 -1.92,3.901 -1.111,5.924l11.172,27.966c0,-0 -26.787,13.76 -26.787,13.76c-1.938,0.996 -3.127,3.021 -3.051,5.198c0.075,2.178 1.401,4.116 3.403,4.975l27.675,11.875c0,-0 -9.211,28.671 -9.211,28.671c-0.667,2.074 -0.075,4.347 1.518,5.833c1.593,1.487 3.901,1.92 5.924,1.111l27.966,-11.172c-0,-0 13.76,26.787 13.76,26.787c0.995,1.938 3.021,3.127 5.198,3.052c2.178,-0.076 4.116,-1.402 4.975,-3.404l11.874,-27.675c0,-0 28.672,9.211 28.672,9.211c2.074,0.667 4.347,0.075 5.833,-1.518c1.487,-1.593 1.919,-3.901 1.111,-5.924l-11.173,-27.966c0,0 26.788,-13.76 26.788,-13.76c1.938,-0.995 3.127,-3.021 3.051,-5.198c-0.075,-2.178 -1.401,-4.116 -3.404,-4.975l-27.674,-11.874c-0,-0 9.211,-28.672 9.211,-28.672Zm-5.355,-1.72l-10.777,33.543l32.377,13.893l-31.339,16.098l13.071,32.718l-33.543,-10.777l-13.893,32.378l-16.098,-31.34l-32.718,13.072l10.777,-33.544l-32.378,-13.892l31.34,-16.099l-13.071,-32.718l33.543,10.777l13.892,-32.377l16.099,31.339l32.718,-13.071Z"/><path d="M3291.59,422.128l1.96,46.721l46.754,0.868l-39.481,25.058l22.625,40.924l-41.442,-21.663l-24.129,40.056l-1.959,-46.721l-46.755,-0.868l39.482,-25.058l-22.625,-40.924l41.442,21.663l24.128,-40.056Z" style="fill:#fee934;"/><path d="M3297.21,421.892c-0.104,-2.481 -1.822,-4.6 -4.228,-5.215c-2.406,-0.614 -4.93,0.421 -6.211,2.548l-21.397,35.521c0,-0 -36.749,-19.211 -36.749,-19.211c-2.2,-1.15 -4.895,-0.722 -6.63,1.055c-1.735,1.776 -2.1,4.479 -0.899,6.652l20.063,36.291c0,-0 -35.011,22.22 -35.011,22.22c-2.096,1.331 -3.072,3.878 -2.402,6.269c0.671,2.391 2.83,4.059 5.312,4.105l41.46,0.77c0,-0 1.738,41.431 1.738,41.431c0.104,2.48 1.822,4.599 4.228,5.214c2.406,0.615 4.93,-0.421 6.211,-2.548l21.397,-35.52c-0,-0 36.749,19.21 36.749,19.21c2.2,1.15 4.895,0.722 6.63,-1.054c1.735,-1.776 2.1,-4.48 0.899,-6.653l-20.063,-36.29c-0,-0 35.011,-22.221 35.011,-22.221c2.096,-1.33 3.072,-3.878 2.402,-6.268c-0.671,-2.391 -2.83,-4.059 -5.312,-4.105l-41.46,-0.77c-0,-0 -1.738,-41.431 -1.738,-41.431Zm-5.621,0.236l1.96,46.721l46.754,0.868l-39.481,25.058l22.625,40.924l-41.442,-21.663l-24.129,40.056l-1.959,-46.721l-46.755,-0.868l39.482,-25.058l-22.625,-40.924l41.442,21.663l24.128,-40.056Z"/></svg>