<?xml version="1.0" encoding="UTF-8" standalone="no"?><!DOCTYPE svg PUBLIC "-//W3C//DTD SVG 1.1//EN" "http://www.w3.org/Graphics/SVG/1.1/DTD/svg11.dtd"><svg width="100%" height="100%" viewBox="0 0 4472 3943" version="1.1" xmlns="http://www.w3.org/2000/svg" xmlns:xlink="http://www.w3.org/1999/xlink" xml:space="preserve" xmlns:serif="http://www.serif.com/" style="fill-rule:evenodd;clip-rule:evenodd;stroke-linecap:round;stroke-linejoin:round;stroke-miterlimit:1.5;"><g><g><clipPath id="_clip1"><path d="M3835.25,1608.08c0,-86.297 -70.062,-156.359 -156.358,-156.359l-2988.02,0c-86.297,0 -156.359,70.062 -156.359,156.359l-0,312.718c-0,86.297 70.062,156.359 156.359,156.359l2988.02,-0c86.296,-0 156.358,-70.062 156.358,-156.359l0,-312.718Z"/></clipPath><g clip-path="url(#_clip1)"><path d="M1495.11,185.068l-371.307,-178.818l-1117.55,2320.55l371.308,178.818l1117.55,-2320.55Z" style="fill:#cba3cc;stroke:#000;stroke-width:12.5px;"/><path d="M1866.42,363.886l-371.308,-178.818l-1117.55,2320.55l371.307,178.818l1117.55,-2320.55Z" style="fill:#6891dc;stroke:#000;stroke-width:12.5px;"/><path d="M2237.73,542.704l-371.308,-178.818l-1117.55,2320.55l371.308,178.818l1117.55,-2320.55Z" style="fill:#cba3cc;stroke:#000;stroke-width:12.5px;"/><path d="M2609.03,721.521l-371.307,-178.817l-1117.55,2320.55l371.308,178.817l1117.55,-2320.55Z" style="fill:#6891dc;stroke:#000;stroke-width:12.5px;"/><path d="M2980.34,900.339l-371.308,-178.818l-1117.55,2320.55l371.308,178.818l1117.55,-2320.55Z" style="fill:#cba3cc;stroke:#000;stroke-width:12.5px;"/><path d="M3351.65,1079.16l-371.308,-178.818l-1117.55,2320.55l371.307,178.818l1117.55,-2320.55Z" style="fill:#6891dc;stroke:#000;stroke-width:12.5px;"/><path d="M3722.96,1257.98l-371.308,-178.818l-1117.55,2320.55l371.308,178.818l1117.55,-2320.55Z" style="fill:#cba3cc;stroke:#000;stroke-width:12.5px;"/><path d="M4094.26,1436.79l-371.307,-178.818l-1117.55,2320.55l371.308,178.818l1117.55,-2320.55Z" style="fill:#6891dc;stroke:#000;stroke-width:12.5px;"/><path d="M4465.57,1615.61l-371.308,-178.818l-1117.55,2320.55l371.307,178.818l1117.55,-2320.55Z" style="fill:#cba3cc;stroke:#000;stroke-width:12.5px;"/></g></g><path d="M3835.25,1608.08c0,-86.297 -70.062,-156.359 -156.358,-156.359l-2988.02,0c-86.297,0 -156.359,70.062 -156.359,156.359l-0,312.718c-0,86.297 70.062,156.359 156.359,156.359l2988.02,-0c86.296,-0 156.358,-70.062 156.358,-156.359l0,-312.718Z" style="fill:none;stroke:#000;stroke-width:20.83px;"/></g><g transform="matrix(4.16667,0,0,4.16667,-5715.47,-2010.62)"><text x="1547.17px" y="926.9px" style="font-family:'Barlow-ExtraBoldItalic', 'Barlow';font-weight:800;font-style:italic;font-size:65px;fill:#fff;">U<tspan x="1590px 1635.44px 1677.23px 1716.88px 1758.42px 1773.63px 1813.28px 1854.49px 1899.92px 1938.4px 1977.47px 2019px 2061.84px 2101.49px 2140.55px 2160.96px 2202.17px " y="926.9px 926.9px 926.9px 926.9px 926.9px 926.9px 926.9px 926.9px 926.9px 926.9px 926.9px 926.9px 926.9px 926.9px 926.9px 926.9px 926.9px ">NDER CONSTRUCTION</tspan></text><path d="M1566.02,930.92c3.909,-0 7.433,-0.794 10.58,-2.342c3.231,-1.589 5.86,-3.845 7.892,-6.763c2.008,-2.883 3.259,-6.198 3.722,-9.957l3.564,-29.158c0.221,-1.302 -0.133,-2.414 -0.935,-3.35c-0.8,-0.934 -1.845,-1.45 -3.178,-1.45l-8.905,-0c-1.066,-0 -2.036,0.347 -2.889,1.093c-0.782,0.684 -1.257,1.523 -1.453,2.5c-0.017,0.087 -0.031,0.174 -0.042,0.262l-3.575,29.25c-0.002,0.018 -0.004,0.036 -0.006,0.055c-0.119,1.119 -0.491,2.041 -1.217,2.72c-0.667,0.623 -1.491,0.91 -2.453,0.91c-0.669,-0 -1.233,-0.107 -1.626,-0.509c-0.412,-0.42 -0.529,-1.011 -0.529,-1.711c0,-0.186 0.014,-0.452 0.014,-0.452c-0,0 -0.011,0.071 -0.017,0.098c0.017,-0.084 0.031,-0.169 0.041,-0.254c0,0 3.64,-29.25 3.64,-29.25c0.018,-0.143 0.027,-0.288 0.027,-0.432c0,-1.338 -0.485,-2.281 -1.098,-2.95c-0.708,-0.772 -1.702,-1.33 -3.117,-1.33l-8.905,-0c-1.066,-0 -2.036,0.347 -2.889,1.093c-0.922,0.807 -1.386,1.788 -1.448,2.917c0,-0.013 -3.621,29.088 -3.621,29.088c-0.006,0.047 -0.011,0.094 -0.015,0.141c-0.097,1.169 -0.142,2.046 -0.142,2.631c0,5.258 1.797,9.418 5.247,12.54c3.322,3.006 7.744,4.61 13.333,4.61Zm0,-3.5c-4.593,-0 -8.255,-1.235 -10.985,-3.705c-2.73,-2.47 -4.095,-5.785 -4.095,-9.945c0,-0.52 0.044,-1.3 0.13,-2.34l3.64,-29.25c0,-0.217 0.087,-0.401 0.26,-0.553c0.174,-0.151 0.369,-0.227 0.585,-0.227l8.905,-0c0.477,-0 0.715,0.26 0.715,0.78l-3.64,29.25c-0.043,0.217 -0.065,0.563 -0.065,1.04c0,1.733 0.509,3.12 1.528,4.16c1.018,1.04 2.394,1.56 4.127,1.56c1.907,-0 3.521,-0.618 4.843,-1.853c1.321,-1.235 2.091,-2.87 2.307,-4.907l3.575,-29.25c0.044,-0.217 0.152,-0.401 0.325,-0.553c0.174,-0.151 0.369,-0.227 0.585,-0.227l8.905,-0c0.217,-0 0.39,0.076 0.52,0.227c0.13,0.152 0.174,0.336 0.13,0.553l-3.575,29.25c-0.39,3.163 -1.43,5.958 -3.12,8.385c-1.69,2.427 -3.878,4.301 -6.565,5.622c-2.686,1.322 -5.698,1.983 -9.035,1.983Z"/><path d="M1607.82,914.928l5.255,12.746c0.657,1.698 1.948,2.726 4.097,2.726c0,-0 9.945,-0 9.945,-0c1.067,-0 2.037,-0.347 2.89,-1.094c0.923,-0.808 1.387,-1.791 1.448,-2.922c-0.001,0.015 5.365,-43.683 5.365,-43.683c0.221,-1.302 -0.133,-2.415 -0.935,-3.351c-0.8,-0.934 -1.845,-1.45 -3.178,-1.45l-8.905,-0c-1.066,-0 -2.036,0.347 -2.889,1.093c-0.782,0.684 -1.257,1.523 -1.453,2.5c-0.018,0.091 -0.032,0.182 -0.043,0.274l-1.369,11.509l-5.229,-12.652c-0.657,-1.697 -1.948,-2.724 -4.097,-2.724l-10.01,-0c-1.188,-0 -2.195,0.421 -3.027,1.253c-0.644,0.643 -1.066,1.421 -1.25,2.34c-0.017,0.087 -0.031,0.173 -0.042,0.26l-5.383,43.846c-0.222,1.302 0.132,2.415 0.935,3.351c0.8,0.933 1.844,1.45 3.177,1.45c0,-0 8.97,-0 8.97,-0c1.188,-0 2.196,-0.421 3.028,-1.253c0.643,-0.644 1.065,-1.421 1.249,-2.341c0.018,-0.087 0.032,-0.176 0.043,-0.265l1.408,-11.613Zm15.072,-32.748c0.044,-0.217 0.152,-0.401 0.325,-0.553c0.174,-0.151 0.369,-0.227 0.585,-0.227l8.905,-0c0.217,-0 0.39,0.076 0.52,0.227c0.13,0.152 0.174,0.336 0.13,0.553l-5.395,43.94c0,0.217 -0.086,0.401 -0.26,0.552c-0.173,0.152 -0.368,0.228 -0.585,0.228l-9.945,-0c-0.433,-0 -0.715,-0.173 -0.845,-0.52l-10.075,-24.44c-0.086,-0.13 -0.162,-0.195 -0.227,-0.195c-0.065,-0 -0.119,0.087 -0.163,0.26l-2.925,24.115c-0.043,0.217 -0.141,0.401 -0.292,0.552c-0.152,0.152 -0.336,0.228 -0.553,0.228l-8.97,-0c-0.216,-0 -0.39,-0.076 -0.52,-0.228c-0.13,-0.151 -0.173,-0.335 -0.13,-0.552l5.395,-43.94c0.044,-0.217 0.141,-0.401 0.293,-0.553c0.151,-0.151 0.336,-0.227 0.552,-0.227l10.01,-0c0.434,-0 0.715,0.173 0.845,0.52l10.075,24.375c0.044,0.13 0.109,0.195 0.195,0.195c0.087,-0 0.152,-0.087 0.195,-0.26l2.86,-24.05Z"/><path d="M1639.87,881.493c-0.017,0.087 -0.031,0.173 -0.042,0.26l-5.383,43.846c-0.222,1.302 0.132,2.415 0.935,3.351c0.8,0.933 1.844,1.45 3.177,1.45c0,-0 16.12,-0 16.12,-0c3.813,-0 7.259,-0.696 10.345,-2.05c3.237,-1.422 5.847,-3.46 7.847,-6.092c2.02,-2.658 3.252,-5.711 3.677,-9.166l2.08,-17.033c0.004,-0.025 0.006,-0.05 0.009,-0.076c0.103,-1.026 0.147,-1.771 0.147,-2.233c0,-4.91 -1.809,-8.797 -5.336,-11.704c-3.268,-2.692 -7.638,-4.146 -13.179,-4.146l-16.12,-0c-1.188,-0 -2.195,0.421 -3.027,1.253c-0.644,0.643 -1.066,1.421 -1.25,2.34Zm3.432,0.687c0.044,-0.217 0.141,-0.401 0.293,-0.553c0.151,-0.151 0.336,-0.227 0.552,-0.227l16.12,-0c4.594,-0 8.244,1.116 10.953,3.347c2.708,2.232 4.062,5.233 4.062,9.003c0,0.39 -0.043,1.018 -0.13,1.885l-2.08,17.03c-0.346,2.817 -1.343,5.308 -2.99,7.475c-1.646,2.167 -3.802,3.835 -6.467,5.005c-2.665,1.17 -5.644,1.755 -8.938,1.755l-16.12,-0c-0.216,-0 -0.39,-0.076 -0.52,-0.228c-0.13,-0.151 -0.173,-0.335 -0.13,-0.552l5.395,-43.94Zm12.935,35.49c1.647,-0 3.077,-0.618 4.29,-1.853c1.214,-1.235 1.972,-2.892 2.275,-4.972l1.69,-13.39c0.044,-0.26 0.065,-0.65 0.065,-1.17c0,-1.777 -0.444,-3.163 -1.332,-4.16c-0.889,-0.997 -2.134,-1.495 -3.738,-1.495l-6.435,-0c-0.216,-0 -0.325,0.108 -0.325,0.325l-3.25,26.39c0,0.217 0.087,0.325 0.26,0.325l6.5,-0Zm-2.842,-3.5l2.468,-20.04l3.624,-0c0.466,-0 0.867,0.034 1.125,0.324c0.383,0.43 0.445,1.064 0.445,1.831c0,0.264 0.005,0.462 -0.017,0.594c-0.008,0.046 -0.014,0.092 -0.02,0.138c-0,-0 -1.685,13.352 -1.685,13.352c-0.185,1.24 -0.579,2.257 -1.304,2.995c-0.511,0.52 -1.101,0.806 -1.794,0.806l-2.842,-0Z"/><path d="M1695.18,914.17l0.27,-2.23l9.924,-0c1.188,-0 2.196,-0.421 3.028,-1.253c0.643,-0.644 1.065,-1.421 1.249,-2.341c0.018,-0.089 0.033,-0.18 0.043,-0.27l0.899,-7.507c0.218,-1.303 -0.137,-2.411 -0.936,-3.344c-0.8,-0.934 -1.845,-1.45 -3.178,-1.45l-9.022,-0l0.201,-1.645l17.011,-0c1.188,-0 2.196,-0.421 3.028,-1.253c0.643,-0.644 1.065,-1.421 1.249,-2.341c0.018,-0.09 0.033,-0.182 0.044,-0.274l0.898,-7.571c0.218,-1.301 -0.137,-2.409 -0.936,-3.341c-0.8,-0.934 -1.845,-1.45 -3.178,-1.45l-29.835,-0c-1.188,-0 -2.195,0.421 -3.027,1.253c-0.644,0.643 -1.066,1.421 -1.25,2.34c-0.017,0.087 -0.031,0.173 -0.042,0.26l-5.383,43.846c-0.222,1.302 0.132,2.415 0.935,3.351c0.8,0.933 1.844,1.45 3.177,1.45c0,-0 29.835,-0 29.835,-0c1.067,-0 2.037,-0.347 2.89,-1.094c0.92,-0.804 1.383,-1.783 1.447,-2.908c-0,0.01 0.944,-7.418 0.944,-7.418c0.225,-1.307 -0.129,-2.422 -0.933,-3.36c-0.8,-0.934 -1.845,-1.45 -3.178,-1.45l-16.174,-0Zm1.851,-14.895l0.013,-0.111l-0.01,0.111l9.445,-0c0.217,-0 0.39,0.076 0.52,0.227c0.13,0.152 0.174,0.336 0.13,0.553l-0.91,7.605c-0.043,0.217 -0.141,0.401 -0.292,0.552c-0.152,0.152 -0.336,0.228 -0.553,0.228l-12.675,-0c-0.173,-0 -0.303,0.108 -0.39,0.325l-1.04,8.58c0,0.217 0.087,0.325 0.26,0.325l19.825,-0c0.217,-0 0.39,0.076 0.52,0.227c0.13,0.152 0.174,0.336 0.13,0.553l-0.975,7.67c0,0.217 -0.086,0.401 -0.26,0.552c-0.173,0.152 -0.368,0.228 -0.585,0.228l-29.835,-0c-0.216,-0 -0.39,-0.076 -0.52,-0.228c-0.13,-0.151 -0.173,-0.335 -0.13,-0.552l5.395,-43.94c0.044,-0.217 0.141,-0.401 0.293,-0.553c0.151,-0.151 0.336,-0.227 0.552,-0.227l29.835,-0c0.217,-0 0.39,0.076 0.52,0.227c0.13,0.152 0.174,0.336 0.13,0.553l-0.91,7.67c-0.043,0.217 -0.141,0.401 -0.292,0.552c-0.152,0.152 -0.336,0.228 -0.553,0.228l-19.825,-0c-0.216,-0 -0.325,0.108 -0.325,0.325l-0.975,7.995c-0.086,0.217 0,0.325 0.26,0.325l3.227,-0Zm0.982,-8.118c0.002,-0.033 0.004,-0.066 0.005,-0.1c0.001,-0.034 0.001,-0.068 0.001,-0.102l-0.006,0.202Z"/><path d="M1734.8,914.525l3.953,12.821c0.007,0.025 0.015,0.051 0.024,0.076c0.648,1.943 2.006,2.978 4.165,2.978l9.425,-0c1.28,-0 2.186,-0.441 2.826,-0.974c0.865,-0.721 1.454,-1.735 1.454,-3.176l-0.083,0.083c0.039,-0.386 0.013,-0.778 -0.08,-1.162l-0.094,-0.324l-5.244,-15.18c2.008,-1.138 3.726,-2.632 5.157,-4.477c2.026,-2.613 3.273,-5.698 3.7,-9.27c0.005,-0.042 0.009,-0.083 0.012,-0.124c0.098,-1.177 0.142,-2.011 0.142,-2.501c0,-4.708 -1.519,-8.415 -4.377,-11.189c-2.82,-2.737 -6.598,-4.206 -11.408,-4.206l-18.785,-0c-1.188,-0 -2.195,0.421 -3.027,1.253c-0.644,0.643 -1.066,1.421 -1.25,2.34c-0.017,0.087 -0.031,0.173 -0.042,0.26c0,0 -5.383,43.846 -5.383,43.846c-0.222,1.302 0.132,2.415 0.935,3.351c0.8,0.933 1.844,1.45 3.177,1.45c0,-0 8.97,-0 8.97,-0c1.188,-0 2.196,-0.421 3.028,-1.253c0.643,-0.644 1.065,-1.421 1.249,-2.341c0.017,-0.082 0.03,-0.165 0.041,-0.249l1.515,-12.032Zm18.626,14.947l-0.017,0.001c-0.163,0.175 -0.262,0.277 -0.262,0.277l0.279,-0.278Zm-10.484,-2.572c-0.433,-0 -0.715,-0.195 -0.845,-0.585l-5.33,-17.29c0,-0.087 -0.032,-0.152 -0.097,-0.195c-0.065,-0.043 -0.141,-0.065 -0.228,-0.065l-4.16,-0c-0.216,-0 -0.325,0.108 -0.325,0.325l-2.145,17.03c-0.043,0.217 -0.141,0.401 -0.292,0.552c-0.152,0.152 -0.336,0.228 -0.553,0.228l-8.97,-0c-0.216,-0 -0.39,-0.076 -0.52,-0.228c-0.13,-0.151 -0.173,-0.335 -0.13,-0.552l5.395,-43.94c0.044,-0.217 0.141,-0.401 0.293,-0.553c0.151,-0.151 0.336,-0.227 0.552,-0.227l18.785,-0c3.77,-0 6.76,1.072 8.97,3.217c2.21,2.145 3.315,5.038 3.315,8.678c0,0.433 -0.043,1.17 -0.13,2.21c-0.346,2.903 -1.343,5.417 -2.99,7.54c-1.646,2.123 -3.77,3.662 -6.37,4.615c-0.173,0.043 -0.26,0.195 -0.26,0.455l6.175,17.875l0.065,0.26c0,0.433 -0.26,0.65 -0.78,0.65l-9.425,-0Zm5.234,-15.889l-0.16,0.044c0.054,-0.013 0.108,-0.028 0.16,-0.044Zm0.15,-0.049l-0.098,0.032l0.098,-0.032Zm-14.846,-0.721c-0.139,-0.361 -0.213,-0.765 -0.213,-1.216c0,0.349 0.053,0.697 0.156,1.031l0.057,0.185Zm1.971,-0.945c0.002,-0.034 0.004,-0.068 0.005,-0.102c0.001,-0.034 0.001,-0.069 0.001,-0.104l-0.006,0.206Zm-0.959,-18.666c-0.216,-0 -0.325,0.108 -0.325,0.325l-1.17,9.23c0,0.217 0.109,0.325 0.325,0.325l6.955,-0c1.734,-0 3.153,-0.52 4.258,-1.56c1.105,-1.04 1.657,-2.405 1.657,-4.095c0,-1.257 -0.422,-2.275 -1.267,-3.055c-0.845,-0.78 -1.983,-1.17 -3.413,-1.17l-7.02,-0Zm2.436,6.38l0.365,-2.88l4.219,-0c0.423,-0 0.789,0.011 1.039,0.242c0.128,0.118 0.141,0.292 0.141,0.483c0,0.629 -0.145,1.159 -0.556,1.546c-0.477,0.449 -1.111,0.609 -1.859,0.609l-3.349,-0Zm0.728,-5.785l-0.013,0.13l0.013,-0.13Z"/><path d="M1791.37,930.92c3.888,-0 7.406,-0.763 10.562,-2.252c3.262,-1.54 5.905,-3.726 7.941,-6.544c2.026,-2.805 3.287,-6.046 3.754,-9.734c0.019,-0.146 0.028,-0.293 0.028,-0.44c0,-1.398 -0.555,-2.378 -1.324,-3.077c-0.639,-0.581 -1.533,-1.049 -2.792,-1.072c0.014,0 -8.825,-0.452 -8.825,-0.452c-0.06,-0.003 -0.119,-0.004 -0.179,-0.004c-1.2,-0 -2.12,0.406 -2.829,1.007c-0.693,0.586 -1.246,1.41 -1.459,2.582c-0.015,0.082 -0.027,0.165 -0.036,0.248c-0.116,1.065 -0.489,1.942 -1.207,2.591c-0.694,0.627 -1.543,0.917 -2.529,0.917c-0.691,-0 -1.273,-0.099 -1.679,-0.496c-0.378,-0.371 -0.476,-0.901 -0.476,-1.529c0,-0.228 -0.003,-0.405 0.018,-0.53c0.009,-0.054 0.016,-0.108 0.023,-0.162l1.752,-14.735c0.146,-1.13 0.533,-2.056 1.267,-2.73c0.68,-0.625 1.536,-0.898 2.54,-0.898c0.681,-0 1.253,0.103 1.653,0.502c0.391,0.391 0.502,0.939 0.502,1.588c0,0.228 0.004,0.405 -0.017,0.529c-0.014,0.086 -0.025,0.172 -0.033,0.259c-0.138,1.511 0.401,2.573 1.157,3.328c0.654,0.654 1.616,1.204 3.043,1.204c0.076,-0 0.152,-0.003 0.228,-0.008l8.891,-0.579c0.993,-0.026 1.921,-0.374 2.741,-1.092c1.017,-0.889 1.408,-1.911 1.451,-2.929c0.093,-1.124 0.134,-1.925 0.134,-2.402c0,-5.151 -1.8,-9.207 -5.262,-12.226c-3.28,-2.859 -7.716,-4.404 -13.383,-4.404c-3.904,-0 -7.45,0.802 -10.645,2.374c-3.281,1.615 -5.934,3.897 -7.965,6.84c-2.003,2.902 -3.252,6.248 -3.714,10.048c0.001,-0.011 -1.749,13.987 -1.749,13.987c-0.1,0.685 -0.162,1.645 -0.162,2.881c0,5.334 1.78,9.548 5.182,12.705c3.303,3.065 7.744,4.705 13.398,4.705Zm0,-3.5c-4.636,-0 -8.309,-1.257 -11.017,-3.77c-2.709,-2.513 -4.063,-5.893 -4.063,-10.14c0,-1.04 0.044,-1.842 0.13,-2.405l1.755,-14.04c0.39,-3.207 1.43,-6.034 3.12,-8.483c1.69,-2.448 3.9,-4.344 6.63,-5.687c2.73,-1.343 5.764,-2.015 9.1,-2.015c4.68,-0 8.374,1.181 11.083,3.542c2.708,2.362 4.062,5.558 4.062,9.588c0,0.433 -0.043,1.17 -0.13,2.21c0,0.173 -0.086,0.336 -0.26,0.487c-0.173,0.152 -0.368,0.228 -0.585,0.228l-8.97,0.585c-0.52,-0 -0.758,-0.238 -0.715,-0.715c0.044,-0.26 0.065,-0.628 0.065,-1.105c0,-1.69 -0.509,-3.044 -1.527,-4.063c-1.019,-1.018 -2.394,-1.527 -4.128,-1.527c-1.95,-0 -3.586,0.607 -4.907,1.82c-1.322,1.213 -2.113,2.838 -2.373,4.875l-1.755,14.755c-0.043,0.26 -0.065,0.628 -0.065,1.105c0,1.69 0.509,3.033 1.528,4.03c1.018,0.997 2.394,1.495 4.127,1.495c1.907,-0 3.532,-0.607 4.875,-1.82c1.344,-1.213 2.124,-2.817 2.34,-4.81c0.087,-0.477 0.369,-0.715 0.845,-0.715l8.905,0.455c0.477,-0 0.715,0.217 0.715,0.65c-0.39,3.077 -1.43,5.785 -3.12,8.125c-1.69,2.34 -3.889,4.149 -6.597,5.427c-2.709,1.279 -5.731,1.918 -9.068,1.918Z"/><path d="M1831.15,931.115c4.003,-0 7.635,-0.84 10.903,-2.487c3.332,-1.679 6.043,-4.044 8.135,-7.092c2.066,-3.009 3.347,-6.495 3.808,-10.472c-0,-0 1.553,-12.948 1.553,-12.948c0.1,-0.68 0.161,-1.681 0.161,-3.001c0,-3.529 -0.795,-6.608 -2.319,-9.254c-1.575,-2.735 -3.83,-4.859 -6.786,-6.351c-2.769,-1.397 -6.009,-2.13 -9.735,-2.13c-3.967,-0 -7.562,0.844 -10.792,2.497c-3.274,1.675 -5.955,4.022 -8.043,7.038c-2.071,2.991 -3.351,6.423 -3.814,10.308c0,-0 -1.621,12.97 -1.621,12.97c-0.1,0.722 -0.16,1.719 -0.16,2.992c0,5.498 1.786,9.83 5.181,13.064c3.333,3.174 7.817,4.866 13.529,4.866Zm0,-3.5c-4.68,-0 -8.385,-1.3 -11.115,-3.9c-2.73,-2.6 -4.095,-6.11 -4.095,-10.53c0,-1.083 0.044,-1.928 0.13,-2.535l1.625,-13c0.39,-3.293 1.463,-6.208 3.218,-8.743c1.755,-2.535 4.008,-4.506 6.76,-5.915c2.751,-1.408 5.817,-2.112 9.197,-2.112c3.12,-0 5.839,0.585 8.158,1.755c2.318,1.17 4.095,2.827 5.33,4.972c1.235,2.145 1.852,4.648 1.852,7.508c0,1.127 -0.043,1.972 -0.13,2.535l-1.56,13c-0.39,3.38 -1.462,6.348 -3.217,8.905c-1.755,2.557 -4.03,4.539 -6.825,5.947c-2.795,1.409 -5.904,2.113 -9.328,2.113Zm1.17,-9.23c2.037,-0 3.759,-0.672 5.168,-2.015c1.408,-1.343 2.242,-3.142 2.502,-5.395l1.69,-13.455c0.044,-0.26 0.065,-0.65 0.065,-1.17c0,-1.907 -0.541,-3.423 -1.625,-4.55c-1.083,-1.127 -2.535,-1.69 -4.355,-1.69c-1.993,-0 -3.694,0.682 -5.102,2.047c-1.409,1.365 -2.243,3.153 -2.503,5.363l-1.625,13.455c-0.043,0.303 -0.065,0.737 -0.065,1.3c0,1.907 0.52,3.402 1.56,4.485c1.04,1.083 2.47,1.625 4.29,1.625Zm0,-3.5c-0.733,-0 -1.346,-0.112 -1.765,-0.549c-0.469,-0.489 -0.585,-1.201 -0.585,-2.061c0,-0.349 0.003,-0.617 0.03,-0.805c0.004,-0.025 0.007,-0.05 0.01,-0.075l1.626,-13.466c0.157,-1.334 0.613,-2.435 1.463,-3.258c0.735,-0.713 1.626,-1.061 2.666,-1.061c0.753,-0 1.384,0.15 1.832,0.616c0.498,0.518 0.648,1.247 0.648,2.124c0,0.264 0.005,0.462 -0.017,0.594c-0.008,0.047 -0.015,0.093 -0.02,0.14l-1.69,13.455c-0.002,0.011 -0.003,0.023 -0.005,0.035c-0.156,1.351 -0.596,2.457 -1.441,3.263c-0.748,0.713 -1.671,1.048 -2.752,1.048Z"/><path d="M1872.3,914.928l5.255,12.746c0.657,1.698 1.948,2.726 4.097,2.726c0,-0 9.945,-0 9.945,-0c1.067,-0 2.037,-0.347 2.89,-1.094c0.923,-0.808 1.387,-1.791 1.448,-2.922c-0.001,0.015 5.365,-43.683 5.365,-43.683c0.221,-1.302 -0.133,-2.415 -0.935,-3.351c-0.8,-0.934 -1.845,-1.45 -3.178,-1.45l-8.905,-0c-1.066,-0 -2.036,0.347 -2.889,1.093c-0.782,0.684 -1.257,1.523 -1.453,2.5c-0.018,0.091 -0.032,0.182 -0.043,0.274l-1.369,11.509l-5.229,-12.652c-0.657,-1.697 -1.948,-2.724 -4.097,-2.724l-10.01,-0c-1.188,-0 -2.195,0.421 -3.027,1.253c-0.644,0.643 -1.066,1.421 -1.25,2.34c-0.017,0.087 -0.031,0.173 -0.042,0.26l-5.383,43.846c-0.222,1.302 0.132,2.415 0.935,3.351c0.8,0.933 1.844,1.45 3.177,1.45c0,-0 8.97,-0 8.97,-0c1.188,-0 2.196,-0.421 3.028,-1.253c0.643,-0.644 1.065,-1.421 1.249,-2.341c0.018,-0.087 0.032,-0.176 0.043,-0.265l1.408,-11.613Zm15.072,-32.748c0.044,-0.217 0.152,-0.401 0.325,-0.553c0.174,-0.151 0.369,-0.227 0.585,-0.227l8.905,-0c0.217,-0 0.39,0.076 0.52,0.227c0.13,0.152 0.174,0.336 0.13,0.553l-5.395,43.94c0,0.217 -0.086,0.401 -0.26,0.552c-0.173,0.152 -0.368,0.228 -0.585,0.228l-9.945,-0c-0.433,-0 -0.715,-0.173 -0.845,-0.52l-10.075,-24.44c-0.086,-0.13 -0.162,-0.195 -0.227,-0.195c-0.065,-0 -0.119,0.087 -0.163,0.26l-2.925,24.115c-0.043,0.217 -0.141,0.401 -0.292,0.552c-0.152,0.152 -0.336,0.228 -0.553,0.228l-8.97,-0c-0.216,-0 -0.39,-0.076 -0.52,-0.228c-0.13,-0.151 -0.173,-0.335 -0.13,-0.552l5.395,-43.94c0.044,-0.217 0.141,-0.401 0.293,-0.553c0.151,-0.151 0.336,-0.227 0.552,-0.227l10.01,-0c0.434,-0 0.715,0.173 0.845,0.52l10.075,24.375c0.044,0.13 0.109,0.195 0.195,0.195c0.087,-0 0.152,-0.087 0.195,-0.26l2.86,-24.05Z"/><path d="M1906.85,907.8l-4.78,-0c-1.188,-0 -2.195,0.421 -3.027,1.253c-0.644,0.643 -1.066,1.421 -1.25,2.34c-0.021,0.106 -0.037,0.213 -0.048,0.32l-0.132,1.254c-0.103,1.026 -0.148,1.771 -0.148,2.233c0,4.937 1.86,8.819 5.492,11.685c3.308,2.61 7.82,4.035 13.608,4.035c5.864,-0 10.723,-1.495 14.616,-4.351c4.139,-3.037 6.543,-7.155 7.188,-12.369c0.002,-0.015 0.003,-0.029 0.005,-0.044c0.106,-0.958 0.151,-1.65 0.151,-2.076c0,-3.286 -1.027,-6.14 -3.051,-8.575c-0.911,-1.096 -1.953,-2.056 -3.13,-2.875l3.526,-0c1.188,-0 2.196,-0.421 3.028,-1.253c0.643,-0.644 1.065,-1.421 1.249,-2.341c0.013,-0.063 0.024,-0.127 0.033,-0.191l0.144,-1.019c0.105,-0.945 0.151,-1.681 0.151,-2.206c0,-3.254 -0.865,-6.123 -2.548,-8.619c-1.65,-2.449 -3.944,-4.368 -6.916,-5.716c-2.764,-1.254 -5.908,-1.905 -9.441,-1.905c-3.825,-0 -7.308,0.733 -10.454,2.168c-3.321,1.514 -5.925,3.681 -7.837,6.47c-1.953,2.847 -2.954,6.135 -2.954,9.877c0,3.236 0.918,5.956 2.653,8.191c1.132,1.459 2.424,2.696 3.872,3.714Zm9.715,19.62c-4.853,-0 -8.666,-1.094 -11.44,-3.283c-2.773,-2.188 -4.16,-5.167 -4.16,-8.937c0,-0.39 0.044,-1.018 0.13,-1.885l0.13,-1.235c0.044,-0.217 0.141,-0.401 0.293,-0.553c0.151,-0.151 0.336,-0.227 0.552,-0.227l8.775,-0c0.217,-0 0.39,0.076 0.52,0.227c0.13,0.152 0.174,0.336 0.13,0.553l-0.065,0.78c-0.173,1.43 0.369,2.676 1.625,3.737c1.257,1.062 3.055,1.593 5.395,1.593c2.037,-0 3.543,-0.477 4.518,-1.43c0.975,-0.953 1.462,-1.993 1.462,-3.12c0,-0.78 -0.303,-1.441 -0.91,-1.983c-0.606,-0.541 -1.321,-0.985 -2.145,-1.332c-0.823,-0.347 -2.405,-0.932 -4.745,-1.755c-2.426,-0.867 -4.528,-1.777 -6.305,-2.73c-1.776,-0.953 -3.304,-2.253 -4.582,-3.9c-1.279,-1.647 -1.918,-3.662 -1.918,-6.045c0,-2.99 0.78,-5.623 2.34,-7.898c1.56,-2.275 3.694,-4.03 6.403,-5.265c2.708,-1.235 5.709,-1.852 9.002,-1.852c2.99,-0 5.655,0.531 7.995,1.592c2.34,1.062 4.16,2.557 5.46,4.485c1.3,1.929 1.95,4.15 1.95,6.663c0,0.433 -0.043,1.04 -0.13,1.82l-0.13,0.91c-0.043,0.217 -0.141,0.401 -0.292,0.552c-0.152,0.152 -0.336,0.228 -0.553,0.228l-8.775,-0c-0.216,-0 -0.39,-0.076 -0.52,-0.228c-0.13,-0.151 -0.173,-0.335 -0.13,-0.552l0.065,-0.455c0.174,-1.517 -0.314,-2.86 -1.462,-4.03c-1.149,-1.17 -2.828,-1.755 -5.038,-1.755c-1.733,-0 -3.12,0.401 -4.16,1.202c-1.04,0.802 -1.56,1.875 -1.56,3.218c0,0.823 0.282,1.527 0.845,2.112c0.564,0.585 1.409,1.138 2.535,1.658c1.127,0.52 2.86,1.192 5.2,2.015c0.304,0.13 1.658,0.617 4.063,1.462c2.405,0.845 4.355,2.167 5.85,3.965c1.495,1.799 2.242,3.911 2.242,6.338c0,0.347 -0.043,0.91 -0.13,1.69c-0.52,4.203 -2.448,7.529 -5.785,9.977c-3.336,2.449 -7.518,3.673 -12.545,3.673Zm-1.547,-15.713c0.011,0.26 -0.005,0.529 -0.047,0.807l-0.066,0.767c-0.033,0.267 0.174,0.444 0.409,0.643c0.721,0.609 1.793,0.766 3.136,0.766c0.909,-0 1.636,-0.007 2.071,-0.433c0.103,-0.1 0.204,-0.193 0.279,-0.29c-0.238,-0.159 -0.499,-0.297 -0.783,-0.416c-0.789,-0.333 -2.306,-0.89 -4.548,-1.68l-0.451,-0.164Zm8.017,-16.232c0.043,-0.442 -0.149,-0.816 -0.485,-1.158c-0.568,-0.579 -1.448,-0.707 -2.54,-0.707c-0.832,-0 -1.524,0.09 -2.023,0.474c-0.094,0.073 -0.15,0.165 -0.176,0.273c0.321,0.274 0.774,0.51 1.326,0.765c0.873,0.403 2.135,0.9 3.784,1.493c-0.003,-0.25 0.016,-0.508 0.062,-0.775l0.052,-0.365Z"/><path d="M1950.41,894.195l-3.838,31.405c-0.222,1.301 0.133,2.414 0.935,3.35c0.8,0.933 1.844,1.45 3.177,1.45c0,-0 8.97,-0 8.97,-0c1.188,-0 2.196,-0.421 3.028,-1.253c0.643,-0.644 1.065,-1.421 1.249,-2.341c0.018,-0.086 0.032,-0.174 0.042,-0.262l3.954,-32.349l8.302,-0c1.188,-0 2.196,-0.421 3.028,-1.253c0.643,-0.644 1.065,-1.421 1.249,-2.341c0.019,-0.092 0.033,-0.184 0.044,-0.277c0,-0 0.898,-7.635 0.898,-7.635c0.217,-1.3 -0.137,-2.407 -0.936,-3.339c-0.8,-0.934 -1.845,-1.45 -3.178,-1.45l-32.76,-0c-1.066,-0 -2.036,0.347 -2.889,1.093c-0.921,0.806 -1.384,1.785 -1.448,2.912c0.001,-0.011 -0.944,7.482 -0.944,7.482c-0.224,1.306 0.13,2.421 0.934,3.358c0.8,0.933 1.844,1.45 3.177,1.45l7.006,-0Zm0.428,-3.5l-0.013,0.11l0.009,-0.11l-7.43,-0c-0.216,-0 -0.39,-0.076 -0.52,-0.228c-0.13,-0.151 -0.173,-0.335 -0.13,-0.552l0.975,-7.735c0,-0.217 0.087,-0.401 0.26,-0.553c0.174,-0.151 0.369,-0.227 0.585,-0.227l32.76,-0c0.217,-0 0.39,0.076 0.52,0.227c0.13,0.152 0.174,0.336 0.13,0.553l-0.91,7.735c-0.043,0.217 -0.141,0.401 -0.292,0.552c-0.152,0.152 -0.336,0.228 -0.553,0.228l-11.05,-0c-0.173,-0 -0.303,0.108 -0.39,0.325l-4.29,35.1c-0.043,0.217 -0.141,0.401 -0.292,0.552c-0.152,0.152 -0.336,0.228 -0.553,0.228l-8.97,-0c-0.216,-0 -0.39,-0.076 -0.52,-0.228c-0.13,-0.151 -0.173,-0.335 -0.13,-0.552l4.29,-35.1c0.087,-0.217 0,-0.325 -0.26,-0.325l-3.226,-0Z"/><path d="M1995.39,914.525l3.953,12.821c0.007,0.025 0.015,0.051 0.024,0.076c0.648,1.943 2.006,2.978 4.165,2.978l9.425,-0c1.28,-0 2.186,-0.441 2.826,-0.974c0.865,-0.721 1.454,-1.735 1.454,-3.176l-0.083,0.083c0.039,-0.386 0.013,-0.778 -0.08,-1.162l-0.094,-0.324l-5.244,-15.18c2.008,-1.138 3.726,-2.632 5.157,-4.477c2.026,-2.613 3.273,-5.698 3.7,-9.27c0.005,-0.042 0.009,-0.083 0.012,-0.124c0.098,-1.177 0.142,-2.011 0.142,-2.501c0,-4.708 -1.519,-8.415 -4.377,-11.189c-2.82,-2.737 -6.598,-4.206 -11.408,-4.206l-18.785,-0c-1.188,-0 -2.195,0.421 -3.027,1.253c-0.644,0.643 -1.066,1.421 -1.25,2.34c-0.017,0.087 -0.031,0.173 -0.042,0.26l-5.383,43.846c-0.222,1.302 0.132,2.415 0.935,3.351c0.8,0.933 1.844,1.45 3.177,1.45c0,-0 8.97,-0 8.97,-0c1.188,-0 2.196,-0.421 3.028,-1.253c0.643,-0.644 1.065,-1.421 1.249,-2.341c0.017,-0.082 0.03,-0.165 0.041,-0.249l1.515,-12.032Zm18.626,14.947l-0.017,0.001c-0.163,0.175 -0.262,0.277 -0.262,0.277l0.279,-0.278Zm-10.484,-2.572c-0.433,-0 -0.715,-0.195 -0.845,-0.585l-5.33,-17.29c0,-0.087 -0.032,-0.152 -0.097,-0.195c-0.065,-0.043 -0.141,-0.065 -0.228,-0.065l-4.16,-0c-0.216,-0 -0.325,0.108 -0.325,0.325l-2.145,17.03c-0.043,0.217 -0.141,0.401 -0.292,0.552c-0.152,0.152 -0.336,0.228 -0.553,0.228l-8.97,-0c-0.216,-0 -0.39,-0.076 -0.52,-0.228c-0.13,-0.151 -0.173,-0.335 -0.13,-0.552l5.395,-43.94c0.044,-0.217 0.141,-0.401 0.293,-0.553c0.151,-0.151 0.336,-0.227 0.552,-0.227l18.785,-0c3.77,-0 6.76,1.072 8.97,3.217c2.21,2.145 3.315,5.038 3.315,8.678c0,0.433 -0.043,1.17 -0.13,2.21c-0.346,2.903 -1.343,5.417 -2.99,7.54c-1.646,2.123 -3.77,3.662 -6.37,4.615c-0.173,0.043 -0.26,0.195 -0.26,0.455l6.175,17.875l0.065,0.26c0,0.433 -0.26,0.65 -0.78,0.65l-9.425,-0Zm5.234,-15.889l-0.16,0.044c0.054,-0.013 0.108,-0.028 0.16,-0.044Zm0.15,-0.049l-0.098,0.032l0.098,-0.032Zm-14.846,-0.721c-0.139,-0.361 -0.213,-0.765 -0.213,-1.216c0,0.349 0.053,0.697 0.156,1.031l0.057,0.185Zm1.971,-0.945c0.002,-0.034 0.004,-0.068 0.005,-0.102c0.001,-0.034 0.001,-0.069 0.001,-0.104l-0.006,0.206Zm-0.959,-18.666c-0.216,-0 -0.325,0.108 -0.325,0.325l-1.17,9.23c0,0.217 0.109,0.325 0.325,0.325l6.955,-0c1.734,-0 3.153,-0.52 4.258,-1.56c1.105,-1.04 1.657,-2.405 1.657,-4.095c0,-1.257 -0.422,-2.275 -1.267,-3.055c-0.845,-0.78 -1.983,-1.17 -3.413,-1.17l-7.02,-0Zm2.436,6.38l0.365,-2.88l4.219,-0c0.423,-0 0.789,0.011 1.039,0.242c0.128,0.118 0.141,0.292 0.141,0.483c0,0.629 -0.145,1.159 -0.556,1.546c-0.477,0.449 -1.111,0.609 -1.859,0.609l-3.349,-0Zm0.733,-5.849l0.006,-0.206c0,0.07 -0.002,0.139 -0.006,0.206Z"/><path d="M2037.85,930.92c3.909,-0 7.433,-0.794 10.58,-2.342c3.231,-1.589 5.86,-3.845 7.892,-6.763c2.008,-2.883 3.259,-6.198 3.722,-9.957l3.564,-29.158c0.221,-1.302 -0.133,-2.414 -0.935,-3.35c-0.8,-0.934 -1.845,-1.45 -3.178,-1.45l-8.905,-0c-1.066,-0 -2.036,0.347 -2.889,1.093c-0.782,0.684 -1.257,1.523 -1.453,2.5c-0.017,0.087 -0.031,0.174 -0.042,0.262l-3.575,29.25c-0.002,0.018 -0.004,0.036 -0.006,0.055c-0.119,1.119 -0.491,2.041 -1.217,2.72c-0.667,0.623 -1.491,0.91 -2.453,0.91c-0.669,-0 -1.233,-0.107 -1.626,-0.509c-0.412,-0.42 -0.529,-1.011 -0.529,-1.711c0,-0.186 0.014,-0.452 0.014,-0.452c-0,0 -0.011,0.071 -0.017,0.098c0.017,-0.084 0.031,-0.169 0.041,-0.254l3.64,-29.25c0.018,-0.143 0.027,-0.288 0.027,-0.432c0,-1.338 -0.485,-2.281 -1.098,-2.95c-0.708,-0.772 -1.702,-1.33 -3.117,-1.33l-8.905,-0c-1.066,-0 -2.036,0.347 -2.889,1.093c-0.922,0.807 -1.386,1.788 -1.448,2.917c0,-0.013 -3.621,29.088 -3.621,29.088c-0.006,0.047 -0.011,0.094 -0.015,0.141c-0.097,1.169 -0.142,2.046 -0.142,2.631c0,5.258 1.797,9.418 5.247,12.54c3.322,3.006 7.744,4.61 13.333,4.61Zm0,-3.5c-4.593,-0 -8.255,-1.235 -10.985,-3.705c-2.73,-2.47 -4.095,-5.785 -4.095,-9.945c0,-0.52 0.044,-1.3 0.13,-2.34l3.64,-29.25c0,-0.217 0.087,-0.401 0.26,-0.553c0.174,-0.151 0.369,-0.227 0.585,-0.227l8.905,-0c0.477,-0 0.715,0.26 0.715,0.78l-3.64,29.25c-0.043,0.217 -0.065,0.563 -0.065,1.04c0,1.733 0.509,3.12 1.528,4.16c1.018,1.04 2.394,1.56 4.127,1.56c1.907,-0 3.521,-0.618 4.843,-1.853c1.321,-1.235 2.091,-2.87 2.307,-4.907l3.575,-29.25c0.044,-0.217 0.152,-0.401 0.325,-0.553c0.174,-0.151 0.369,-0.227 0.585,-0.227l8.905,-0c0.217,-0 0.39,0.076 0.52,0.227c0.13,0.152 0.174,0.336 0.13,0.553l-3.575,29.25c-0.39,3.163 -1.43,5.958 -3.12,8.385c-1.69,2.427 -3.878,4.301 -6.565,5.622c-2.686,1.322 -5.698,1.983 -9.035,1.983Z"/><path d="M2079.58,930.92c3.888,-0 7.406,-0.763 10.562,-2.252c3.262,-1.54 5.905,-3.726 7.941,-6.544c2.026,-2.805 3.287,-6.046 3.754,-9.734c0.019,-0.146 0.028,-0.293 0.028,-0.44c0,-1.398 -0.555,-2.378 -1.324,-3.077c-0.639,-0.581 -1.533,-1.049 -2.792,-1.072c0.014,0 -8.825,-0.452 -8.825,-0.452c-0.06,-0.003 -0.119,-0.004 -0.179,-0.004c-1.2,-0 -2.12,0.406 -2.829,1.007c-0.693,0.586 -1.246,1.41 -1.459,2.582c-0.015,0.082 -0.027,0.165 -0.036,0.248c-0.116,1.065 -0.489,1.942 -1.207,2.591c-0.694,0.627 -1.543,0.917 -2.529,0.917c-0.691,-0 -1.273,-0.099 -1.679,-0.496c-0.378,-0.371 -0.476,-0.901 -0.476,-1.529c0,-0.228 -0.003,-0.405 0.018,-0.53c0.009,-0.054 0.016,-0.108 0.023,-0.162c-0,0 1.752,-14.735 1.752,-14.735c0.146,-1.13 0.533,-2.056 1.267,-2.73c0.68,-0.625 1.536,-0.898 2.54,-0.898c0.681,-0 1.253,0.103 1.653,0.502c0.391,0.391 0.502,0.939 0.502,1.588c0,0.228 0.004,0.405 -0.017,0.529c-0.014,0.086 -0.025,0.172 -0.033,0.259c-0.138,1.511 0.401,2.573 1.157,3.328c0.654,0.654 1.616,1.204 3.043,1.204c0.076,-0 0.152,-0.003 0.228,-0.008l8.891,-0.579c0.993,-0.026 1.921,-0.374 2.741,-1.092c1.017,-0.889 1.408,-1.911 1.451,-2.929c0.093,-1.124 0.134,-1.925 0.134,-2.402c0,-5.151 -1.8,-9.207 -5.262,-12.226c-3.28,-2.859 -7.716,-4.404 -13.383,-4.404c-3.904,-0 -7.45,0.802 -10.645,2.374c-3.281,1.615 -5.934,3.897 -7.965,6.84c-2.003,2.902 -3.252,6.248 -3.714,10.048c0.001,-0.011 -1.749,13.987 -1.749,13.987c-0.1,0.685 -0.162,1.645 -0.162,2.881c0,5.334 1.78,9.548 5.182,12.705c3.303,3.065 7.744,4.705 13.398,4.705Zm0,-3.5c-4.636,-0 -8.309,-1.257 -11.017,-3.77c-2.709,-2.513 -4.063,-5.893 -4.063,-10.14c0,-1.04 0.044,-1.842 0.13,-2.405l1.755,-14.04c0.39,-3.207 1.43,-6.034 3.12,-8.483c1.69,-2.448 3.9,-4.344 6.63,-5.687c2.73,-1.343 5.764,-2.015 9.1,-2.015c4.68,-0 8.374,1.181 11.083,3.542c2.708,2.362 4.062,5.558 4.062,9.588c0,0.433 -0.043,1.17 -0.13,2.21c0,0.173 -0.086,0.336 -0.26,0.487c-0.173,0.152 -0.368,0.228 -0.585,0.228l-8.97,0.585c-0.52,-0 -0.758,-0.238 -0.715,-0.715c0.044,-0.26 0.065,-0.628 0.065,-1.105c0,-1.69 -0.509,-3.044 -1.527,-4.063c-1.019,-1.018 -2.394,-1.527 -4.128,-1.527c-1.95,-0 -3.586,0.607 -4.907,1.82c-1.322,1.213 -2.113,2.838 -2.373,4.875l-1.755,14.755c-0.043,0.26 -0.065,0.628 -0.065,1.105c0,1.69 0.509,3.033 1.528,4.03c1.018,0.997 2.394,1.495 4.127,1.495c1.907,-0 3.532,-0.607 4.875,-1.82c1.344,-1.213 2.124,-2.817 2.34,-4.81c0.087,-0.477 0.369,-0.715 0.845,-0.715l8.905,0.455c0.477,-0 0.715,0.217 0.715,0.65c-0.39,3.077 -1.43,5.785 -3.12,8.125c-1.69,2.34 -3.889,4.149 -6.597,5.427c-2.709,1.279 -5.731,1.918 -9.068,1.918Z"/><path d="M2113.5,894.195l-3.838,31.405c-0.222,1.301 0.133,2.414 0.935,3.35c0.8,0.933 1.844,1.45 3.177,1.45c0,-0 8.97,-0 8.97,-0c1.188,-0 2.196,-0.421 3.028,-1.253c0.643,-0.644 1.065,-1.421 1.249,-2.341c0.018,-0.086 0.032,-0.174 0.042,-0.262l3.954,-32.349l8.302,-0c1.188,-0 2.196,-0.421 3.028,-1.253c0.643,-0.644 1.065,-1.421 1.249,-2.341c0.019,-0.092 0.033,-0.184 0.044,-0.277l0.898,-7.635c0.217,-1.3 -0.137,-2.407 -0.936,-3.339c-0.8,-0.934 -1.845,-1.45 -3.178,-1.45l-32.76,-0c-1.066,-0 -2.036,0.347 -2.889,1.093c-0.921,0.806 -1.384,1.785 -1.448,2.912c0.001,-0.011 -0.944,7.482 -0.944,7.482c-0.224,1.306 0.13,2.421 0.934,3.358c0.8,0.933 1.844,1.45 3.177,1.45l7.006,-0Zm0.428,-3.5l-0.013,0.11l0.009,-0.11l-7.43,-0c-0.216,-0 -0.39,-0.076 -0.52,-0.228c-0.13,-0.151 -0.173,-0.335 -0.13,-0.552l0.975,-7.735c0,-0.217 0.087,-0.401 0.26,-0.553c0.174,-0.151 0.369,-0.227 0.585,-0.227l32.76,-0c0.217,-0 0.39,0.076 0.52,0.227c0.13,0.152 0.174,0.336 0.13,0.553l-0.91,7.735c-0.043,0.217 -0.141,0.401 -0.292,0.552c-0.152,0.152 -0.336,0.228 -0.553,0.228l-11.05,-0c-0.173,-0 -0.303,0.108 -0.39,0.325l-4.29,35.1c-0.043,0.217 -0.141,0.401 -0.292,0.552c-0.152,0.152 -0.336,0.228 -0.553,0.228l-8.97,-0c-0.216,-0 -0.39,-0.076 -0.52,-0.228c-0.13,-0.151 -0.173,-0.335 -0.13,-0.552l4.29,-35.1c0.087,-0.217 0,-0.325 -0.26,-0.325l-3.226,-0Z"/><path d="M2144.98,881.493c-0.017,0.087 -0.031,0.173 -0.042,0.26l-5.383,43.846c-0.222,1.302 0.132,2.415 0.935,3.351c0.8,0.933 1.844,1.45 3.177,1.45c0,-0 8.97,-0 8.97,-0c1.188,-0 2.196,-0.421 3.028,-1.253c0.643,-0.644 1.065,-1.421 1.249,-2.341c0.018,-0.086 0.031,-0.172 0.042,-0.26l5.384,-43.845c0.221,-1.302 -0.133,-2.415 -0.935,-3.351c-0.8,-0.934 -1.845,-1.45 -3.178,-1.45l-8.97,-0c-1.188,-0 -2.195,0.421 -3.027,1.253c-0.644,0.643 -1.066,1.421 -1.25,2.34Zm3.432,0.687c0.044,-0.217 0.141,-0.401 0.293,-0.553c0.151,-0.151 0.336,-0.227 0.552,-0.227l8.97,-0c0.217,-0 0.39,0.076 0.52,0.227c0.13,0.152 0.174,0.336 0.13,0.553l-5.395,43.94c-0.043,0.217 -0.141,0.401 -0.292,0.552c-0.152,0.152 -0.336,0.228 -0.553,0.228l-8.97,-0c-0.216,-0 -0.39,-0.076 -0.52,-0.228c-0.13,-0.151 -0.173,-0.335 -0.13,-0.552l5.395,-43.94Z"/><path d="M2178.84,931.115c4.003,-0 7.635,-0.84 10.903,-2.487c3.332,-1.679 6.043,-4.044 8.135,-7.092c2.066,-3.009 3.347,-6.495 3.808,-10.472c-0,-0 1.553,-12.948 1.553,-12.948c0.1,-0.68 0.161,-1.681 0.161,-3.001c0,-3.529 -0.795,-6.608 -2.319,-9.254c-1.575,-2.735 -3.83,-4.859 -6.786,-6.351c-2.769,-1.397 -6.009,-2.13 -9.735,-2.13c-3.967,-0 -7.562,0.844 -10.792,2.497c-3.274,1.675 -5.955,4.022 -8.043,7.038c-2.071,2.991 -3.351,6.423 -3.814,10.308c0,-0 -1.621,12.97 -1.621,12.97c-0.1,0.722 -0.16,1.719 -0.16,2.992c0,5.498 1.786,9.83 5.181,13.064c3.333,3.174 7.817,4.866 13.529,4.866Zm0,-3.5c-4.68,-0 -8.385,-1.3 -11.115,-3.9c-2.73,-2.6 -4.095,-6.11 -4.095,-10.53c0,-1.083 0.044,-1.928 0.13,-2.535l1.625,-13c0.39,-3.293 1.463,-6.208 3.218,-8.743c1.755,-2.535 4.008,-4.506 6.76,-5.915c2.751,-1.408 5.817,-2.112 9.197,-2.112c3.12,-0 5.839,0.585 8.158,1.755c2.318,1.17 4.095,2.827 5.33,4.972c1.235,2.145 1.852,4.648 1.852,7.508c0,1.127 -0.043,1.972 -0.13,2.535l-1.56,13c-0.39,3.38 -1.462,6.348 -3.217,8.905c-1.755,2.557 -4.03,4.539 -6.825,5.947c-2.795,1.409 -5.904,2.113 -9.328,2.113Zm1.17,-9.23c2.037,-0 3.759,-0.672 5.168,-2.015c1.408,-1.343 2.242,-3.142 2.502,-5.395l1.69,-13.455c0.044,-0.26 0.065,-0.65 0.065,-1.17c0,-1.907 -0.541,-3.423 -1.625,-4.55c-1.083,-1.127 -2.535,-1.69 -4.355,-1.69c-1.993,-0 -3.694,0.682 -5.102,2.047c-1.409,1.365 -2.243,3.153 -2.503,5.363l-1.625,13.455c-0.043,0.303 -0.065,0.737 -0.065,1.3c0,1.907 0.52,3.402 1.56,4.485c1.04,1.083 2.47,1.625 4.29,1.625Zm0,-3.5c-0.733,-0 -1.346,-0.112 -1.765,-0.549c-0.469,-0.489 -0.585,-1.201 -0.585,-2.061c0,-0.349 0.003,-0.617 0.03,-0.805c0.004,-0.025 0.007,-0.05 0.01,-0.075l1.626,-13.466c0.157,-1.334 0.613,-2.435 1.463,-3.258c0.735,-0.713 1.626,-1.061 2.666,-1.061c0.753,-0 1.384,0.15 1.832,0.616c0.498,0.518 0.648,1.247 0.648,2.124c0,0.264 0.005,0.462 -0.017,0.594c-0.008,0.047 -0.015,0.093 -0.02,0.14l-1.69,13.455c-0.002,0.011 -0.003,0.023 -0.005,0.035c-0.156,1.351 -0.596,2.457 -1.441,3.263c-0.748,0.713 -1.671,1.048 -2.752,1.048Z"/><path d="M2219.99,914.928l5.255,12.746c0.657,1.698 1.948,2.726 4.097,2.726c0,-0 9.945,-0 9.945,-0c1.067,-0 2.037,-0.347 2.89,-1.094c0.923,-0.808 1.387,-1.791 1.448,-2.922c-0.001,0.015 5.365,-43.683 5.365,-43.683c0.221,-1.302 -0.133,-2.415 -0.935,-3.351c-0.8,-0.934 -1.845,-1.45 -3.178,-1.45l-8.905,-0c-1.066,-0 -2.036,0.347 -2.889,1.093c-0.782,0.684 -1.257,1.523 -1.453,2.5c-0.018,0.091 -0.032,0.182 -0.043,0.274l-1.369,11.509l-5.229,-12.652c-0.657,-1.697 -1.948,-2.724 -4.097,-2.724l-10.01,-0c-1.188,-0 -2.195,0.421 -3.027,1.253c-0.644,0.643 -1.066,1.421 -1.25,2.34c-0.017,0.087 -0.031,0.173 -0.042,0.26c0,0 -5.383,43.846 -5.383,43.846c-0.222,1.302 0.132,2.415 0.935,3.351c0.8,0.933 1.844,1.45 3.177,1.45c0,-0 8.97,-0 8.97,-0c1.188,-0 2.196,-0.421 3.028,-1.253c0.643,-0.644 1.065,-1.421 1.249,-2.341c0.018,-0.087 0.032,-0.176 0.043,-0.265l1.408,-11.613Zm15.072,-32.748c0.044,-0.217 0.152,-0.401 0.325,-0.553c0.174,-0.151 0.369,-0.227 0.585,-0.227l8.905,-0c0.217,-0 0.39,0.076 0.52,0.227c0.13,0.152 0.174,0.336 0.13,0.553l-5.395,43.94c0,0.217 -0.086,0.401 -0.26,0.552c-0.173,0.152 -0.368,0.228 -0.585,0.228l-9.945,-0c-0.433,-0 -0.715,-0.173 -0.845,-0.52l-10.075,-24.44c-0.086,-0.13 -0.162,-0.195 -0.227,-0.195c-0.065,-0 -0.119,0.087 -0.163,0.26l-2.925,24.115c-0.043,0.217 -0.141,0.401 -0.292,0.552c-0.152,0.152 -0.336,0.228 -0.553,0.228l-8.97,-0c-0.216,-0 -0.39,-0.076 -0.52,-0.228c-0.13,-0.151 -0.173,-0.335 -0.13,-0.552l5.395,-43.94c0.044,-0.217 0.141,-0.401 0.293,-0.553c0.151,-0.151 0.336,-0.227 0.552,-0.227l10.01,-0c0.434,-0 0.715,0.173 0.845,0.52l10.075,24.375c0.044,0.13 0.109,0.195 0.195,0.195c0.087,-0 0.152,-0.087 0.195,-0.26l2.86,-24.05Z"/></g></svg>