<svg xmlns="http://www.w3.org/2000/svg" viewBox="0 0 491.96 415.91"><defs><style>.cls-1,.cls-2{fill:#f6f6f6;}.cls-2,.cls-3{stroke:#575756;stroke-width:2px;}.cls-2,.cls-3,.cls-4{stroke-miterlimit:10;}.cls-3,.cls-4{fill:none;}.cls-4{stroke:#7cbed0;}</style></defs><title>Ativo 21n</title><g id="Camada_2" data-name="Camada 2"><g id="Camada_32" data-name="Camada 32"><path class="cls-1" d="M220,84.86,247.4,236,276.69,83.92S258.27,80.14,262,59.36a28.72,28.72,0,0,0-27.87-.94S239.37,78.25,220,84.86Z"/><path class="cls-2" d="M220.23,83.28s-25.6-3.2-34.74,2.74c0,0-16-6.86-24.23-7.77,0,0-27-16-31.54-15.54,0,0-13.26-20.11-47.54-28.8,0,0-12.8-7.31-18.29-16,0,0-1.37-9.6-12.8-14.63,0,0-16.46-5.49-10.06,9.6,0,0,5,8.69,3.66,11.43,0,0,2.29,6.4,24.23,16.91,0,0,21.62,28.34,54.23,36.42a17.33,17.33,0,0,0,15.29,9.52,103.49,103.49,0,0,0,36.65,17.89s10.58,5.84,19.85,18.72,17.35,39.29,20.4,57.58-14,32-20.68,72.42c0,0-8.15,34.49-20.91,44s-30.69,48.88-30.14,63.55-9,34.22-22,40.19c0,0,3.26,11.68,27.16,12.76,0,0,2.72-9.23,2.72-14.66,0,0-3-12.76,4.89-21.45s17-20.77,22.81-35c7.39-18.12.28-28.16,18.47-39.11,9.59-5.77,48.94-66.14,50.31-68.53"/><path class="cls-2" d="M274.7,83.89s25.6-3.2,34.74,2.74c0,0,16-6.86,24.23-7.77,0,0,27-16,31.54-15.54,0,0,13.26-20.11,47.54-28.8,0,0,12.8-7.31,18.29-16,0,0,1.37-9.6,12.8-14.63,0,0,16.46-5.49,10.06,9.6,0,0-5,8.69-3.66,11.43,0,0-2.29,6.4-24.23,16.91,0,0-21.62,28.34-54.23,36.42a17.33,17.33,0,0,1-15.29,9.52,103.49,103.49,0,0,1-36.65,17.89S309.26,111.5,300,124.38s-17.35,39.29-20.4,57.58,14,32,20.68,72.42c0,0,8.15,34.49,20.91,44s30.69,48.88,30.14,63.55,9,34.22,22,40.19c0,0-3.26,11.68-27.16,12.76,0,0-2.72-9.23-2.72-14.66,0,0,3-12.76-4.89-21.45s-17-20.77-22.81-35c-7.39-18.12-.28-28.16-18.47-39.11-9.59-5.77-48.94-66.14-50.31-68.53"/><path class="cls-2" d="M220.73,12.13a39.62,39.62,0,0,1,55.44.37"/><path class="cls-2" d="M276.17,12.5,267.9,63.24A28.15,28.15,0,0,0,228.51,63l-7.78-50.85"/><path class="cls-3" d="M233.81,58.7s4.8,17.33-13.57,24.85"/><path class="cls-3" d="M275.18,83.67C256.8,76.15,261.6,58.82,261.6,58.82"/><g id="linhas"><path class="cls-4" d="M248.6,56.32c-.32,39-.32,76.81,0,115.93"/><line class="cls-4" x1="248.55" y1="172.83" x2="452.17" y2="13.86"/><line class="cls-4" x1="248.5" y1="172.25" x2="491.84" y2="229.83"/><line class="cls-4" x1="248.5" y1="172.25" x2="363.51" y2="410.09"/><line class="cls-4" x1="248.5" y1="172.25" x2="135.46" y2="411.1"/><path class="cls-4" d="M248.5,172.25C165.5,191.52,82.83,212.59.11,230.4"/><line class="cls-4" x1="248.5" y1="172.25" x2="41.09" y2="7.33"/></g></g></g></svg>