<svg xmlns="http://www.w3.org/2000/svg" xmlns:xlink="http://www.w3.org/1999/xlink" viewBox="0 0 170.82 218.32"><defs><style>.cls-1,.cls-10,.cls-11,.cls-12,.cls-13,.cls-14,.cls-15,.cls-16,.cls-17,.cls-18,.cls-19,.cls-2,.cls-20,.cls-21,.cls-22,.cls-23,.cls-24,.cls-25,.cls-26,.cls-27,.cls-28,.cls-29,.cls-3,.cls-30,.cls-31,.cls-32,.cls-33,.cls-34,.cls-35,.cls-36,.cls-37,.cls-38,.cls-39,.cls-4,.cls-40,.cls-41,.cls-42,.cls-43,.cls-44,.cls-45,.cls-46,.cls-47,.cls-48,.cls-49,.cls-5,.cls-50,.cls-51,.cls-52,.cls-53,.cls-54,.cls-55,.cls-56,.cls-57,.cls-58,.cls-59,.cls-6,.cls-60,.cls-61,.cls-62,.cls-63,.cls-64,.cls-65,.cls-66,.cls-67,.cls-68,.cls-69,.cls-7,.cls-70,.cls-71,.cls-72,.cls-73,.cls-74,.cls-75,.cls-76,.cls-77,.cls-78,.cls-79,.cls-8,.cls-80,.cls-81,.cls-82,.cls-83,.cls-84,.cls-85,.cls-86,.cls-87,.cls-88,.cls-89,.cls-9,.cls-90,.cls-91,.cls-92,.cls-93,.cls-94{fill:none;stroke-miterlimit:10;}.cls-1{stroke:url(#Gradiente_sem_nome_18);}.cls-2{stroke:url(#Gradiente_sem_nome_18-2);}.cls-3{stroke:url(#Gradiente_sem_nome_18-3);}.cls-4{stroke:url(#Gradiente_sem_nome_18-4);}.cls-5{stroke:url(#Gradiente_sem_nome_18-5);}.cls-6{stroke:url(#Gradiente_sem_nome_18-6);}.cls-7{stroke:url(#Gradiente_sem_nome_18-7);}.cls-8{stroke:url(#Gradiente_sem_nome_18-8);}.cls-9{stroke:url(#Gradiente_sem_nome_18-9);}.cls-10{stroke:url(#Gradiente_sem_nome_18-10);}.cls-11{stroke:url(#Gradiente_sem_nome_18-11);}.cls-12{stroke:url(#Gradiente_sem_nome_18-12);}.cls-13{stroke:url(#Gradiente_sem_nome_18-13);}.cls-14{stroke:url(#Gradiente_sem_nome_18-14);}.cls-15{stroke:url(#Gradiente_sem_nome_18-15);}.cls-16{stroke:url(#Gradiente_sem_nome_18-16);}.cls-17{stroke:url(#Gradiente_sem_nome_18-17);}.cls-18{stroke:url(#Gradiente_sem_nome_18-18);}.cls-19{stroke:url(#Gradiente_sem_nome_18-19);}.cls-20{stroke:url(#Gradiente_sem_nome_18-20);}.cls-21{stroke:url(#Gradiente_sem_nome_18-21);}.cls-22{stroke:url(#Gradiente_sem_nome_18-22);}.cls-23{stroke:url(#Gradiente_sem_nome_18-23);}.cls-24{stroke:url(#Gradiente_sem_nome_18-24);}.cls-25{stroke:url(#Gradiente_sem_nome_18-25);}.cls-26{stroke:url(#Gradiente_sem_nome_18-26);}.cls-27{stroke:url(#Gradiente_sem_nome_18-27);}.cls-28{stroke:url(#Gradiente_sem_nome_18-28);}.cls-29{stroke:url(#Gradiente_sem_nome_18-29);}.cls-30{stroke:url(#Gradiente_sem_nome_18-30);}.cls-31{stroke:url(#Gradiente_sem_nome_18-31);}.cls-32{stroke:url(#Gradiente_sem_nome_18-32);}.cls-33{stroke:url(#Gradiente_sem_nome_18-33);}.cls-34{stroke:url(#Gradiente_sem_nome_18-34);}.cls-35{stroke:url(#Gradiente_sem_nome_57);}.cls-36{stroke:url(#Gradiente_sem_nome_57-2);}.cls-37{stroke:url(#Gradiente_sem_nome_57-3);}.cls-38{stroke:url(#Gradiente_sem_nome_57-4);}.cls-39{stroke:url(#Gradiente_sem_nome_57-5);}.cls-40{stroke:url(#Gradiente_sem_nome_57-6);}.cls-41{stroke:url(#Gradiente_sem_nome_57-7);}.cls-42{stroke:url(#Gradiente_sem_nome_57-8);}.cls-43{stroke:url(#Gradiente_sem_nome_57-9);}.cls-44{stroke:url(#Gradiente_sem_nome_57-10);}.cls-45{stroke:url(#Gradiente_sem_nome_57-11);}.cls-46{stroke:url(#Gradiente_sem_nome_57-12);}.cls-47{stroke:url(#Gradiente_sem_nome_57-13);}.cls-48{stroke:url(#Gradiente_sem_nome_57-14);}.cls-49{stroke:url(#Gradiente_sem_nome_57-15);}.cls-50{stroke:url(#Gradiente_sem_nome_57-16);}.cls-51{stroke:url(#Gradiente_sem_nome_57-17);}.cls-52{stroke:url(#Gradiente_sem_nome_57-18);}.cls-53{stroke:url(#Gradiente_sem_nome_57-19);}.cls-54{stroke:url(#Gradiente_sem_nome_57-20);}.cls-55{stroke:url(#Gradiente_sem_nome_57-21);}.cls-56{stroke:url(#Gradiente_sem_nome_57-22);}.cls-57{stroke:url(#Gradiente_sem_nome_57-23);}.cls-58{stroke:url(#Gradiente_sem_nome_57-24);}.cls-59{stroke:url(#Gradiente_sem_nome_57-25);}.cls-60{stroke:url(#Gradiente_sem_nome_57-26);}.cls-61{stroke:url(#Gradiente_sem_nome_57-27);}.cls-62{stroke:url(#Gradiente_sem_nome_57-28);}.cls-63{stroke:url(#Gradiente_sem_nome_57-29);}.cls-64{stroke:url(#Gradiente_sem_nome_57-30);}.cls-65{stroke:url(#Gradiente_sem_nome_57-31);}.cls-66{stroke:url(#Gradiente_sem_nome_57-32);}.cls-67{stroke:url(#Gradiente_sem_nome_57-33);}.cls-68{stroke:url(#Gradiente_sem_nome_57-34);}.cls-69{stroke:url(#Gradiente_sem_nome_57-35);}.cls-70{stroke:url(#Gradiente_sem_nome_25);}.cls-71{stroke:url(#Gradiente_sem_nome_25-2);}.cls-72{stroke:url(#Gradiente_sem_nome_25-3);}.cls-73{stroke:url(#Gradiente_sem_nome_25-4);}.cls-74{stroke:url(#Gradiente_sem_nome_25-5);}.cls-75{stroke:url(#Gradiente_sem_nome_25-6);}.cls-76{stroke:url(#Gradiente_sem_nome_25-7);}.cls-77{stroke:url(#Gradiente_sem_nome_25-8);}.cls-78{stroke:url(#Gradiente_sem_nome_25-9);}.cls-79{stroke:url(#Gradiente_sem_nome_25-10);}.cls-80{stroke:url(#Gradiente_sem_nome_25-11);}.cls-81{stroke:url(#Gradiente_sem_nome_25-12);}.cls-82{stroke:url(#Gradiente_sem_nome_25-13);}.cls-83{stroke:url(#Gradiente_sem_nome_25-14);}.cls-84{stroke:url(#Gradiente_sem_nome_25-15);}.cls-85{stroke:url(#Gradiente_sem_nome_25-16);}.cls-86{stroke:url(#Gradiente_sem_nome_25-17);}.cls-87{stroke:url(#Gradiente_sem_nome_25-18);}.cls-88{stroke:url(#Gradiente_sem_nome_25-19);}.cls-89{stroke:url(#Gradiente_sem_nome_25-20);}.cls-90{stroke:url(#Gradiente_sem_nome_25-21);}.cls-91{stroke:url(#Gradiente_sem_nome_25-22);}.cls-92{stroke:url(#Gradiente_sem_nome_25-23);}.cls-93{stroke:url(#Gradiente_sem_nome_25-24);}.cls-94{stroke:url(#Gradiente_sem_nome_25-25);}</style><linearGradient id="Gradiente_sem_nome_18" x1="37.21" y1="125.54" x2="74.98" y2="125.54" gradientUnits="userSpaceOnUse"><stop offset="0" stop-color="#9bb4df"/><stop offset="0.11" stop-color="#97aed9"/><stop offset="0.26" stop-color="#8a9ec8"/><stop offset="0.44" stop-color="#7584ad"/><stop offset="0.62" stop-color="#585f86"/><stop offset="0.82" stop-color="#333155"/><stop offset="1" stop-color="#0c0022"/></linearGradient><linearGradient id="Gradiente_sem_nome_18-2" x1="40.29" y1="125.55" x2="76.14" y2="125.55" xlink:href="#Gradiente_sem_nome_18"/><linearGradient id="Gradiente_sem_nome_18-3" x1="43.36" y1="125.56" x2="77.59" y2="125.56" xlink:href="#Gradiente_sem_nome_18"/><linearGradient id="Gradiente_sem_nome_18-4" x1="46.44" y1="125.56" x2="79.55" y2="125.56" xlink:href="#Gradiente_sem_nome_18"/><linearGradient id="Gradiente_sem_nome_18-5" x1="49.51" y1="125.57" x2="81.51" y2="125.57" xlink:href="#Gradiente_sem_nome_18"/><linearGradient id="Gradiente_sem_nome_18-6" x1="52.59" y1="125.58" x2="83.46" y2="125.58" xlink:href="#Gradiente_sem_nome_18"/><linearGradient id="Gradiente_sem_nome_18-7" x1="55.66" y1="125.59" x2="85.42" y2="125.59" xlink:href="#Gradiente_sem_nome_18"/><linearGradient id="Gradiente_sem_nome_18-8" x1="58.73" y1="125.6" x2="87.38" y2="125.6" xlink:href="#Gradiente_sem_nome_18"/><linearGradient id="Gradiente_sem_nome_18-9" x1="61.8" y1="125.61" x2="89.34" y2="125.61" xlink:href="#Gradiente_sem_nome_18"/><linearGradient id="Gradiente_sem_nome_18-10" x1="64.87" y1="125.62" x2="91.3" y2="125.62" xlink:href="#Gradiente_sem_nome_18"/><linearGradient id="Gradiente_sem_nome_18-11" x1="67.94" y1="125.63" x2="93.26" y2="125.63" xlink:href="#Gradiente_sem_nome_18"/><linearGradient id="Gradiente_sem_nome_18-12" x1="71.01" y1="125.64" x2="95.23" y2="125.64" xlink:href="#Gradiente_sem_nome_18"/><linearGradient id="Gradiente_sem_nome_18-13" x1="74.07" y1="125.66" x2="97.19" y2="125.66" xlink:href="#Gradiente_sem_nome_18"/><linearGradient id="Gradiente_sem_nome_18-14" x1="77.13" y1="125.67" x2="99.15" y2="125.67" xlink:href="#Gradiente_sem_nome_18"/><linearGradient id="Gradiente_sem_nome_18-15" x1="79.64" y1="125.68" x2="101.11" y2="125.68" xlink:href="#Gradiente_sem_nome_18"/><linearGradient id="Gradiente_sem_nome_18-16" x1="81.68" y1="125.68" x2="103.08" y2="125.68" xlink:href="#Gradiente_sem_nome_18"/><linearGradient id="Gradiente_sem_nome_18-17" x1="83.5" y1="125.69" x2="105.04" y2="125.69" xlink:href="#Gradiente_sem_nome_18"/><linearGradient id="Gradiente_sem_nome_18-18" x1="85.13" y1="125.68" x2="107.01" y2="125.68" xlink:href="#Gradiente_sem_nome_18"/><linearGradient id="Gradiente_sem_nome_18-19" x1="86.58" y1="125.65" x2="108.98" y2="125.65" xlink:href="#Gradiente_sem_nome_18"/><linearGradient id="Gradiente_sem_nome_18-20" x1="87.91" y1="125.69" x2="110.94" y2="125.69" xlink:href="#Gradiente_sem_nome_18"/><linearGradient id="Gradiente_sem_nome_18-21" x1="89.58" y1="125.87" x2="112.91" y2="125.87" xlink:href="#Gradiente_sem_nome_18"/><linearGradient id="Gradiente_sem_nome_18-22" x1="90.8" y1="125.9" x2="114.87" y2="125.9" xlink:href="#Gradiente_sem_nome_18"/><linearGradient id="Gradiente_sem_nome_18-23" x1="92" y1="125.99" x2="116.93" y2="125.99" xlink:href="#Gradiente_sem_nome_18"/><linearGradient id="Gradiente_sem_nome_18-24" x1="93.24" y1="126.12" x2="119.5" y2="126.12" xlink:href="#Gradiente_sem_nome_18"/><linearGradient id="Gradiente_sem_nome_18-25" x1="94.5" y1="126.3" x2="122.08" y2="126.3" xlink:href="#Gradiente_sem_nome_18"/><linearGradient id="Gradiente_sem_nome_18-26" x1="95.49" y1="126.5" x2="124.65" y2="126.5" xlink:href="#Gradiente_sem_nome_18"/><linearGradient id="Gradiente_sem_nome_18-27" x1="96.47" y1="126.73" x2="127.22" y2="126.73" xlink:href="#Gradiente_sem_nome_18"/><linearGradient id="Gradiente_sem_nome_18-28" x1="97.44" y1="126.98" x2="129.79" y2="126.98" xlink:href="#Gradiente_sem_nome_18"/><linearGradient id="Gradiente_sem_nome_18-29" x1="98.42" y1="127.26" x2="132.37" y2="127.26" xlink:href="#Gradiente_sem_nome_18"/><linearGradient id="Gradiente_sem_nome_18-30" x1="99.39" y1="127.54" x2="134.94" y2="127.54" xlink:href="#Gradiente_sem_nome_18"/><linearGradient id="Gradiente_sem_nome_18-31" x1="100.35" y1="127.85" x2="137.5" y2="127.85" xlink:href="#Gradiente_sem_nome_18"/><linearGradient id="Gradiente_sem_nome_18-32" x1="101.32" y1="128.16" x2="140.08" y2="128.16" xlink:href="#Gradiente_sem_nome_18"/><linearGradient id="Gradiente_sem_nome_18-33" x1="102.29" y1="128.48" x2="142.65" y2="128.48" xlink:href="#Gradiente_sem_nome_18"/><linearGradient id="Gradiente_sem_nome_18-34" x1="103.25" y1="128.82" x2="145.23" y2="128.82" xlink:href="#Gradiente_sem_nome_18"/><linearGradient id="Gradiente_sem_nome_57" x1="45.78" y1="146.67" x2="94.15" y2="133.34" gradientUnits="userSpaceOnUse"><stop offset="0.03" stop-color="#83cbcf"/><stop offset="0.21" stop-color="#87cacd"/><stop offset="0.4" stop-color="#94c9c7"/><stop offset="0.6" stop-color="#aac6bc"/><stop offset="0.8" stop-color="#c7c2ae"/><stop offset="0.94" stop-color="#e2bea1"/></linearGradient><linearGradient id="Gradiente_sem_nome_57-2" x1="45.17" y1="146.55" x2="92.22" y2="133.59" xlink:href="#Gradiente_sem_nome_57"/><linearGradient id="Gradiente_sem_nome_57-3" x1="44.55" y1="146.44" x2="90.29" y2="133.83" xlink:href="#Gradiente_sem_nome_57"/><linearGradient id="Gradiente_sem_nome_57-4" x1="43.94" y1="146.32" x2="88.38" y2="134.08" xlink:href="#Gradiente_sem_nome_57"/><linearGradient id="Gradiente_sem_nome_57-5" x1="43.33" y1="146.21" x2="86.46" y2="134.32" xlink:href="#Gradiente_sem_nome_57"/><linearGradient id="Gradiente_sem_nome_57-6" x1="42.71" y1="146.09" x2="84.54" y2="134.57" xlink:href="#Gradiente_sem_nome_57"/><linearGradient id="Gradiente_sem_nome_57-7" x1="42.1" y1="145.98" x2="82.63" y2="134.81" xlink:href="#Gradiente_sem_nome_57"/><linearGradient id="Gradiente_sem_nome_57-8" x1="41.48" y1="145.86" x2="80.72" y2="135.05" xlink:href="#Gradiente_sem_nome_57"/><linearGradient id="Gradiente_sem_nome_57-9" x1="40.87" y1="145.75" x2="78.82" y2="135.29" xlink:href="#Gradiente_sem_nome_57"/><linearGradient id="Gradiente_sem_nome_57-10" x1="40.25" y1="145.63" x2="76.92" y2="135.53" xlink:href="#Gradiente_sem_nome_57"/><linearGradient id="Gradiente_sem_nome_57-11" x1="39.63" y1="145.52" x2="75.03" y2="135.77" xlink:href="#Gradiente_sem_nome_57"/><linearGradient id="Gradiente_sem_nome_57-12" x1="39.02" y1="145.4" x2="73.15" y2="136" xlink:href="#Gradiente_sem_nome_57"/><linearGradient id="Gradiente_sem_nome_57-13" x1="38.4" y1="145.29" x2="71.67" y2="136.12" xlink:href="#Gradiente_sem_nome_57"/><linearGradient id="Gradiente_sem_nome_57-14" x1="37.78" y1="145.17" x2="70.52" y2="136.15" xlink:href="#Gradiente_sem_nome_57"/><linearGradient id="Gradiente_sem_nome_57-15" x1="37.16" y1="145.06" x2="69.38" y2="136.18" xlink:href="#Gradiente_sem_nome_57"/><linearGradient id="Gradiente_sem_nome_57-16" x1="36.54" y1="144.94" x2="68.26" y2="136.21" xlink:href="#Gradiente_sem_nome_57"/><linearGradient id="Gradiente_sem_nome_57-17" x1="35.91" y1="144.83" x2="67.15" y2="136.22" xlink:href="#Gradiente_sem_nome_57"/><linearGradient id="Gradiente_sem_nome_57-18" x1="35.29" y1="144.71" x2="66.07" y2="136.23" xlink:href="#Gradiente_sem_nome_57"/><linearGradient id="Gradiente_sem_nome_57-19" x1="34.66" y1="144.58" x2="65.01" y2="136.22" xlink:href="#Gradiente_sem_nome_57"/><linearGradient id="Gradiente_sem_nome_57-20" x1="34.03" y1="144.44" x2="63.97" y2="136.2" xlink:href="#Gradiente_sem_nome_57"/><linearGradient id="Gradiente_sem_nome_57-21" x1="33.39" y1="144.28" x2="62.97" y2="136.13" xlink:href="#Gradiente_sem_nome_57"/><linearGradient id="Gradiente_sem_nome_57-22" x1="32.72" y1="144.08" x2="62.01" y2="136.01" xlink:href="#Gradiente_sem_nome_57"/><linearGradient id="Gradiente_sem_nome_57-23" x1="30.9" y1="144.36" x2="61.09" y2="136.04" xlink:href="#Gradiente_sem_nome_57"/><linearGradient id="Gradiente_sem_nome_57-24" x1="29.06" y1="144.66" x2="60.12" y2="136.11" xlink:href="#Gradiente_sem_nome_57"/><linearGradient id="Gradiente_sem_nome_57-25" x1="27.18" y1="144.94" x2="59.15" y2="136.13" xlink:href="#Gradiente_sem_nome_57"/><linearGradient id="Gradiente_sem_nome_57-26" x1="25.28" y1="145.2" x2="58.2" y2="136.13" xlink:href="#Gradiente_sem_nome_57"/><linearGradient id="Gradiente_sem_nome_57-27" x1="23.35" y1="145.46" x2="57.26" y2="136.11" xlink:href="#Gradiente_sem_nome_57"/><linearGradient id="Gradiente_sem_nome_57-28" x1="21.41" y1="145.71" x2="56.33" y2="136.09" xlink:href="#Gradiente_sem_nome_57"/><linearGradient id="Gradiente_sem_nome_57-29" x1="19.45" y1="145.97" x2="55.41" y2="136.07" xlink:href="#Gradiente_sem_nome_57"/><linearGradient id="Gradiente_sem_nome_57-30" x1="17.54" y1="146.22" x2="54.49" y2="136.04" xlink:href="#Gradiente_sem_nome_57"/><linearGradient id="Gradiente_sem_nome_57-31" x1="15.55" y1="146.49" x2="53.58" y2="136.01" xlink:href="#Gradiente_sem_nome_57"/><linearGradient id="Gradiente_sem_nome_57-32" x1="13.54" y1="146.76" x2="52.67" y2="135.98" xlink:href="#Gradiente_sem_nome_57"/><linearGradient id="Gradiente_sem_nome_57-33" x1="11.54" y1="147.03" x2="51.76" y2="135.94" xlink:href="#Gradiente_sem_nome_57"/><linearGradient id="Gradiente_sem_nome_57-34" x1="9.53" y1="147.3" x2="50.86" y2="135.91" xlink:href="#Gradiente_sem_nome_57"/><linearGradient id="Gradiente_sem_nome_57-35" x1="7.52" y1="147.57" x2="49.95" y2="135.88" xlink:href="#Gradiente_sem_nome_57"/><linearGradient id="Gradiente_sem_nome_25" x1="156.86" y1="41.28" x2="73.08" y2="186.39" gradientUnits="userSpaceOnUse"><stop offset="0" stop-color="#9bb4df"/><stop offset="0.1" stop-color="#a2bcdd"/><stop offset="0.4" stop-color="#b3d0d7"/><stop offset="0.7" stop-color="#bddcd4"/><stop offset="1" stop-color="#c0e0d3"/></linearGradient><linearGradient id="Gradiente_sem_nome_25-2" x1="158.1" y1="41.09" x2="74.19" y2="186.42" xlink:href="#Gradiente_sem_nome_25"/><linearGradient id="Gradiente_sem_nome_25-3" x1="159.37" y1="40.84" x2="75.31" y2="186.44" xlink:href="#Gradiente_sem_nome_25"/><linearGradient id="Gradiente_sem_nome_25-4" x1="160.7" y1="40.36" x2="76.36" y2="186.44" xlink:href="#Gradiente_sem_nome_25"/><linearGradient id="Gradiente_sem_nome_25-5" x1="162.03" y1="39.88" x2="77.42" y2="186.43" xlink:href="#Gradiente_sem_nome_25"/><linearGradient id="Gradiente_sem_nome_25-6" x1="163.36" y1="39.41" x2="78.47" y2="186.42" xlink:href="#Gradiente_sem_nome_25"/><linearGradient id="Gradiente_sem_nome_25-7" x1="164.69" y1="38.94" x2="79.54" y2="186.42" xlink:href="#Gradiente_sem_nome_25"/><linearGradient id="Gradiente_sem_nome_25-8" x1="166.02" y1="38.47" x2="80.6" y2="186.42" xlink:href="#Gradiente_sem_nome_25"/><linearGradient id="Gradiente_sem_nome_25-9" x1="167.36" y1="38.01" x2="81.67" y2="186.42" xlink:href="#Gradiente_sem_nome_25"/><linearGradient id="Gradiente_sem_nome_25-10" x1="168.7" y1="37.54" x2="82.74" y2="186.42" xlink:href="#Gradiente_sem_nome_25"/><linearGradient id="Gradiente_sem_nome_25-11" x1="170.04" y1="37.08" x2="83.81" y2="186.42" xlink:href="#Gradiente_sem_nome_25"/><linearGradient id="Gradiente_sem_nome_25-12" x1="171.38" y1="36.61" x2="84.89" y2="186.43" xlink:href="#Gradiente_sem_nome_25"/><linearGradient id="Gradiente_sem_nome_25-13" x1="172.73" y1="36.14" x2="85.96" y2="186.43" xlink:href="#Gradiente_sem_nome_25"/><linearGradient id="Gradiente_sem_nome_25-14" x1="174.08" y1="35.68" x2="87.04" y2="186.44" xlink:href="#Gradiente_sem_nome_25"/><linearGradient id="Gradiente_sem_nome_25-15" x1="175.43" y1="35.21" x2="88.12" y2="186.44" xlink:href="#Gradiente_sem_nome_25"/><linearGradient id="Gradiente_sem_nome_25-16" x1="176.78" y1="34.74" x2="89.19" y2="186.45" xlink:href="#Gradiente_sem_nome_25"/><linearGradient id="Gradiente_sem_nome_25-17" x1="178.13" y1="34.27" x2="90.27" y2="186.45" xlink:href="#Gradiente_sem_nome_25"/><linearGradient id="Gradiente_sem_nome_25-18" x1="179.48" y1="33.81" x2="91.35" y2="186.46" xlink:href="#Gradiente_sem_nome_25"/><linearGradient id="Gradiente_sem_nome_25-19" x1="180.83" y1="33.34" x2="92.43" y2="186.46" xlink:href="#Gradiente_sem_nome_25"/><linearGradient id="Gradiente_sem_nome_25-20" x1="182.19" y1="32.87" x2="93.51" y2="186.47" xlink:href="#Gradiente_sem_nome_25"/><linearGradient id="Gradiente_sem_nome_25-21" x1="183.54" y1="32.4" x2="94.59" y2="186.48" xlink:href="#Gradiente_sem_nome_25"/><linearGradient id="Gradiente_sem_nome_25-22" x1="184.9" y1="31.93" x2="95.66" y2="186.48" xlink:href="#Gradiente_sem_nome_25"/><linearGradient id="Gradiente_sem_nome_25-23" x1="186.25" y1="31.46" x2="96.74" y2="186.49" xlink:href="#Gradiente_sem_nome_25"/><linearGradient id="Gradiente_sem_nome_25-24" x1="187.61" y1="30.99" x2="97.82" y2="186.49" xlink:href="#Gradiente_sem_nome_25"/><linearGradient id="Gradiente_sem_nome_25-25" x1="188.96" y1="30.51" x2="98.9" y2="186.5" xlink:href="#Gradiente_sem_nome_25"/></defs><title>Ativo 6dna</title><g id="Camada_2" data-name="Camada 2"><g id="Camada_32" data-name="Camada 32"><path class="cls-1" d="M64.09,200.92c-24-25.62-28.35-39.95-25.69-48.4,4.75-15.08,31.79-11.39,35.78-27,2.46-9.65-10.69-15.37-13.76-31.51s5.16-32.44,12.84-43.9"/><path class="cls-2" d="M65.37,201c-13.18-14.13-19.78-25-22.74-33.34-2.12-6-2.25-10.52-1.17-14.08,2.51-8.22,11.37-11,19.48-14.28,6.74-2.74,13.15-5.67,14.52-12.76A11.92,11.92,0,0,0,74,118.73a81.45,81.45,0,0,0-4.3-7.15,48.93,48.93,0,0,1-3.15-5.27,46.77,46.77,0,0,1-3.34-9.72c-.13-.61-.24-1.24-.33-1.89a56.58,56.58,0,0,1-.46-10.77,56.29,56.29,0,0,1,2-13.12,44.49,44.49,0,0,1,2-5.65A73.51,73.51,0,0,1,75.23,50"/><path class="cls-3" d="M66.64,201.13c-12.43-13.4-18.32-24-21.09-32.44-1.94-5.9-2.1-10.43-1.05-14,2.43-8.2,10.92-11.13,18.65-14.45,6.42-2.76,12.65-5.54,13.58-12.6.38-2.84-.51-5.32-1.79-8-1.16-2.42-2.68-5-4.05-7.45a33.17,33.17,0,0,1-2.63-5,71.5,71.5,0,0,1-2.69-9.84c-.12-.62-.19-1.27-.27-1.94a92.66,92.66,0,0,1-.39-11.13,61,61,0,0,1,1.1-13,33.61,33.61,0,0,1,1.86-5.86A59.8,59.8,0,0,1,77.21,50"/><path class="cls-4" d="M67.92,201.23c-11.68-12.66-16.86-23.09-19.43-31.54-1.77-5.84-2-10.34-.93-13.93,2.33-8.2,10.48-11.27,17.81-14.62,6.09-2.78,12.13-5.43,12.64-12.45.21-2.88-.83-5.36-2.12-8.12-1.19-2.54-2.63-5.27-3.8-7.76a22.72,22.72,0,0,1-2.1-4.73c-.59-2.52-1.44-6.42-2-10-.11-.63-.14-1.3-.2-2-.31-3.78-.21-7.83-.31-11.48-.14-4.9-.49-8.11.21-12.93a27.79,27.79,0,0,1,1.71-6.07A51.4,51.4,0,0,1,79.18,49.9"/><path class="cls-5" d="M69.2,201.33C58.28,189.41,53.8,179.2,51.43,170.69c-1.61-5.77-1.8-10.25-.81-13.86,2.25-8.19,10-11.4,17-14.8,5.76-2.81,11.61-5.33,11.7-12.3,0-2.93-1.15-5.41-2.45-8.27-1.21-2.66-2.58-5.57-3.55-8.06-.68-1.75-1.38-2.67-1.57-4.46-.25-2.44-.88-6.6-1.39-10.08-.1-.65-.1-1.34-.13-2.05C70,93,70.18,88.7,70,85c-.3-5-1.12-7.82-.69-12.84a24.24,24.24,0,0,1,1.57-6.28,45.79,45.79,0,0,1,10.32-16"/><path class="cls-6" d="M70.48,201.44c-10.18-11.19-14-21.17-16.12-29.74-1.44-5.7-1.65-10.16-.69-13.79,2.16-8.18,9.59-11.53,16.14-15,5.43-2.84,11.08-5.23,10.76-12.15-.14-3-1.47-5.45-2.77-8.41A85.06,85.06,0,0,1,74.5,114c-.55-1.77-1.1-2.46-1-4.19a80.09,80.09,0,0,0-.74-10.19c-.08-.66-.05-1.37-.07-2.11-.09-4,.18-8.41-.17-12.2-.47-5.16-1.75-7.54-1.58-12.74a21.89,21.89,0,0,1,1.42-6.49A41.81,41.81,0,0,1,83.13,49.76"/><path class="cls-7" d="M71.76,201.54c-9.43-10.46-12.5-20.21-14.46-28.84-1.28-5.63-1.5-10.07-.57-13.71,2.07-8.16,9.14-11.67,15.31-15.14,5.1-2.87,10.53-5.14,9.82-12-.32-3-1.79-5.5-3.1-8.55a56.66,56.66,0,0,1-3.05-8.67c-.42-1.8-.82-2.25-.51-3.92.43-2.29.24-7-.1-10.31a21.42,21.42,0,0,1,0-2.17c0-4.07.37-8.7-.09-12.56-.64-5.3-2.39-7.26-2.48-12.65a20.27,20.27,0,0,1,1.27-6.7A38.87,38.87,0,0,1,85.1,49.69"/><path class="cls-8" d="M73,201.64c-8.68-9.72-11-19.24-12.8-27.93-1.12-5.56-1.35-10-.45-13.64,2-8.15,8.7-11.8,14.47-15.31,4.78-2.9,10-5.06,8.88-11.84-.5-3.09-2.11-5.54-3.43-8.69a43,43,0,0,1-2.8-9c-.28-1.83-.54-2,0-3.65.77-2.22.81-7.16.55-10.43a21.33,21.33,0,0,1,.07-2.22c.14-4.16.56-9,0-12.91-.81-5.43-3-7-3.37-12.56a19.11,19.11,0,0,1,1.12-6.91A36.64,36.64,0,0,1,87.08,49.62"/><path class="cls-9" d="M74.32,201.74c-7.93-9-9.6-18.27-11.15-27-1-5.48-1.2-9.89-.34-13.56,1.9-8.14,8.26-11.94,13.64-15.49,4.45-2.94,9.4-5,7.93-11.69-.69-3.14-2.42-5.59-3.76-8.83a35.16,35.16,0,0,1-2.56-9.28c-.14-1.86-.26-1.83.55-3.38,1.12-2.14,1.38-7.35,1.2-10.55A21.48,21.48,0,0,1,80,99.65c.25-4.26.75-9.28.05-13.27-1-5.56-3.66-6.7-4.26-12.46a18.28,18.28,0,0,1,1-7.12A34.9,34.9,0,0,1,89.05,49.56"/><path class="cls-10" d="M75.6,201.84c-7.18-8.25-8.16-17.3-9.49-26.13-.82-5.41-1-9.8-.22-13.49,1.82-8.13,7.82-12.07,12.8-15.66,4.13-3,8.81-4.9,7-11.54-.88-3.2-2.74-5.63-4.08-9a30.12,30.12,0,0,1-2.31-9.58c0-1.89,0-1.62,1.07-3.11,1.47-2.07,2-7.54,1.85-10.67a21.82,21.82,0,0,1,.2-2.33c.36-4.35.94-9.57.12-13.63-1.15-5.69-4.3-6.42-5.16-12.37A17.68,17.68,0,0,1,78.22,67,33.54,33.54,0,0,1,91,49.49"/><path class="cls-11" d="M76.88,201.95c-6.43-7.52-6.71-16.32-7.83-25.23-.67-5.33-.89-9.71-.1-13.42,1.74-8.12,7.38-12.21,12-15.83,3.8-3,8.22-4.82,6.05-11.38-1.07-3.26-3.06-5.68-4.41-9.12s-2.24-7.47-2.06-9.89c.14-1.93.31-1.41,1.6-2.84,1.81-2,2.54-7.73,2.5-10.79a22.35,22.35,0,0,1,.27-2.39c.47-4.45,1.13-9.86.2-14-1.32-5.82-4.93-6.14-6.05-12.28a17.24,17.24,0,0,1,.67-7.54A32.44,32.44,0,0,1,93,49.42"/><path class="cls-12" d="M78.15,202c-5.68-6.78-5.28-15.34-6.17-24.33-.52-5.25-.74-9.62,0-13.34,1.65-8.11,6.94-12.35,11.13-16,3.48-3,7.61-4.74,5.11-11.23-1.28-3.32-3.38-5.72-4.74-9.26s-2.16-7.79-1.81-10.19c.29-2,.59-1.2,2.13-2.57C86,113.21,87,107.21,87,104.22a23.06,23.06,0,0,1,.33-2.45c.58-4.55,1.32-10.15.27-14.34-1.49-6-5.57-5.86-6.94-12.18a16.94,16.94,0,0,1,.52-7.75A31.57,31.57,0,0,1,95,49.35"/><path class="cls-13" d="M79.43,202.15c-4.93-6.05-3.85-14.36-4.52-23.43-.38-5.16-.58-9.53.14-13.27,1.57-8.09,6.5-12.49,10.3-16.18,3.16-3.07,7-4.65,4.17-11.08-1.48-3.37-3.69-5.77-5.06-9.4s-2.08-8.12-1.56-10.5c.44-2,.88-1,2.66-2.3,2.51-1.84,3.72-8.11,3.8-11a24,24,0,0,1,.4-2.5c.69-4.64,1.51-10.44.34-14.7-1.67-6.08-6.21-5.58-7.84-12.09a16.74,16.74,0,0,1,.37-8A30.86,30.86,0,0,1,96.95,49.28"/><path class="cls-14" d="M80.71,202.25c-4.18-5.32-2.42-13.38-2.86-22.53-.25-5.08-.43-9.44.26-13.19,1.49-8.08,6.07-12.63,9.46-16.35,2.84-3.11,6.37-4.56,3.23-10.93-1.69-3.43-4-5.82-5.39-9.54s-2-8.44-1.31-10.8c.6-2,1.16-.78,3.19-2,2.86-1.76,4.31-8.3,4.45-11.14a25.09,25.09,0,0,1,.47-2.56c.79-4.74,1.7-10.73.41-15.06-1.84-6.21-6.85-5.3-8.73-12A16.62,16.62,0,0,1,84.12,68a30.28,30.28,0,0,1,14.8-18.75"/><path class="cls-15" d="M82,202.36c-3.43-4.58-1-12.39-1.2-21.63-.11-5-.28-9.35.38-13.12,1.41-8.07,5.63-12.78,8.63-16.52,2.52-3.15,5.74-4.47,2.29-10.77-1.91-3.48-4.33-5.86-5.72-9.68s-1.91-8.76-1.06-11.1c.75-2.07,1.45-.57,3.72-1.76,3.21-1.68,4.9-8.5,5.1-11.26a26.45,26.45,0,0,1,.54-2.61c.9-4.83,1.88-11,.49-15.42-2-6.34-7.49-5-9.63-11.9a16.56,16.56,0,0,1,.08-8.39,29.82,29.82,0,0,1,15.3-19"/><path class="cls-16" d="M83.27,202.46c-2.67-3.85.42-11.4.45-20.72,0-4.91-.12-9.26.5-13,1.33-8.06,5.2-12.93,7.79-16.69,2.2-3.19,5.11-4.37,1.35-10.62-2.12-3.53-4.64-5.91-6-9.83s-1.83-9.08-.81-11.41c.92-2.11,1.73-.35,4.25-1.49,3.56-1.6,5.5-8.69,5.75-11.38.07-.82.4-1.7.6-2.67,1-4.93,2.07-11.31.56-15.77C95.47,82.36,89.53,84.09,87.14,77a16.56,16.56,0,0,1-.07-8.6,29.44,29.44,0,0,1,15.8-19.35"/><path class="cls-17" d="M84.55,202.56c-1.92-3.11,1.83-10.42,2.11-19.82.14-4.83,0-9.17.62-13,1.24-8,4.76-13.08,7-16.87,1.88-3.24,4.47-4.27.4-10.47-2.34-3.57-5-6-6.37-10s-1.73-9.4-.56-11.71c1.08-2.14,2-.14,4.78-1.22,3.9-1.52,6.11-8.88,6.4-11.5.09-.84.45-1.73.67-2.73,1.12-5,2.26-11.59.63-16.13-2.37-6.6-8.77-4.46-11.41-11.72a16.61,16.61,0,0,1-.22-8.81A29.15,29.15,0,0,1,104.84,49"/><path class="cls-18" d="M85.83,202.66c-1.17-2.38,3.24-9.43,3.77-18.92.27-4.74.18-9.08.74-12.9,1.16-8,4.32-13.24,6.13-17,1.56-3.29,3.83-4.16-.54-10.32-2.56-3.61-5.28-6-6.7-10.11s-1.64-9.71-.31-12,2.3.07,5.3-.95c4.25-1.44,6.71-9.08,7-11.61.11-.86.49-1.77.74-2.78,1.22-5.13,2.44-11.88.7-16.49-2.54-6.73-9.41-4.18-12.31-11.62a16.7,16.7,0,0,1-.37-9,28.91,28.91,0,0,1,16.8-19.95"/><path class="cls-19" d="M87.11,202.77c-.42-1.64,4.63-8.44,5.42-18,.38-4.65.34-9,.86-12.82,1.08-8,3.88-13.4,5.29-17.21,1.24-3.35,3.19-4-1.48-10.16-2.79-3.65-5.59-6-7-10.25s-1.55-10-.07-12.32,2.58.29,5.83-.68c4.6-1.36,7.32-9.27,7.69-11.73.13-.87.54-1.8.8-2.84,1.33-5.22,2.63-12.17.78-16.85C102.49,83,95.16,86,92,78.35a16.82,16.82,0,0,1-.52-9.23,28.73,28.73,0,0,1,17.3-20.25"/><path class="cls-20" d="M88.39,202.87c.33-.91,6-7.45,7.08-17.12.5-4.57.49-8.89,1-12.75,1-8,3.43-13.57,4.46-17.38.91-3.4,2.55-3.93-2.42-10-3-3.69-5.91-6.09-7.35-10.39s-1.45-10.33.18-12.63,2.86.5,6.36-.41c4.95-1.28,7.93-9.46,8.34-11.85.15-.89.58-1.83.87-2.89,1.44-5.32,2.82-12.46.85-17.2-2.9-7-10.69-3.61-14.09-11.44-1.57-3.61-1-7.87-.67-9.44a28.59,28.59,0,0,1,17.79-20.55"/><path class="cls-21" d="M89.66,203c1.08-.17,7.41-6.47,8.74-16.22.61-4.49.65-8.8,1.09-12.68.93-8,3-13.73,3.62-17.56.58-3.46,1.91-3.81-3.36-9.86-3.24-3.72-6.22-6.14-7.68-10.54-1.51-4.56-1.36-10.64.43-12.93s3.15.71,6.89-.14c5.29-1.2,8.54-9.65,9-12,.18-.91.63-1.87.94-2.95,1.54-5.42,3-12.75.92-17.56-3.08-7.12-11.34-3.33-15-11.34-1.69-3.7-1.12-8.09-.82-9.65a28.5,28.5,0,0,1,18.29-20.85"/><path class="cls-22" d="M90.94,203.07c1.83.56,8.78-5.48,10.39-15.32.72-4.4.8-8.71,1.21-12.6.85-8,2.52-13.9,2.79-17.73.24-3.52,1.26-3.68-4.3-9.71C97.57,144,94.5,141.53,93,137c-1.52-4.68-1.27-10.95.68-13.23s3.43.93,7.42.13c5.64-1.12,9.15-9.84,9.64-12.09.2-.92.67-1.9,1-3,1.65-5.51,3.19-13,1-17.92-3.25-7.25-12-3-15.88-11.25-1.81-3.8-1.25-8.32-1-9.86a28.44,28.44,0,0,1,18.79-21.15"/><path class="cls-23" d="M92.22,203.17c2.58,1.29,10.15-4.5,12.05-14.42.83-4.32,1-8.62,1.33-12.53.77-8,2.06-14.07,2-17.9-.1-3.58.62-3.55-5.24-9.56C98.62,145,95.46,142.55,94,138c-1.54-4.8-1.17-11.25.93-13.54s3.71,1.14,7.95.41c6-1,9.77-10,10.29-12.21.23-.94.72-1.93,1.07-3.06,1.76-5.61,3.37-13.32,1.07-18.28-3.43-7.38-12.62-2.76-16.78-11.16-1.92-3.89-1.38-8.54-1.11-10.07C99,60.75,106.3,52,116.69,48.6"/><path class="cls-24" d="M93.5,203.28c3.33,2,11.51-3.53,13.71-13.51a95,95,0,0,0,1.45-12.45c.69-8,1.59-14.23,1.12-18.08-.45-3.64,0-3.42-6.18-9.4-3.92-3.81-7.17-6.27-8.66-11C93.38,134,93.85,127.32,96.11,125s4,1.35,8.48.68c6.33-1,10.39-10.22,10.94-12.32.25-1,.76-2,1.14-3.12,1.86-5.71,3.56-13.61,1.14-18.63-3.61-7.5-13.26-2.48-17.67-11.06-2-4-1.51-8.76-1.26-10.28,1.56-9.49,9.06-18.42,19.79-21.75"/><path class="cls-25" d="M94.78,203.38c4.08,2.76,12.86-2.55,15.36-12.61a74.58,74.58,0,0,0,1.57-12.38c.61-7.94,1.12-14.39.28-18.25-.8-3.69-.67-3.28-7.13-9.25-4.15-3.83-7.49-6.32-9-11.1-1.58-5-1-11.85,1.43-14.15s4.28,1.57,9,.95c6.68-.86,11-10.41,11.59-12.44.28-1,.81-2,1.2-3.17,2-5.81,3.74-13.9,1.21-19-3.79-7.63-13.9-2.2-18.56-11-2.16-4.07-1.64-9-1.41-10.49,1.5-9.67,9.22-18.77,20.29-22.05"/><path class="cls-26" d="M96.06,203.48c4.83,3.5,14.2-1.58,17-11.71a61.24,61.24,0,0,0,1.69-12.31c.54-7.93.64-14.55-.55-18.42s-1.31-3.14-8.07-9.1c-4.38-3.85-7.8-6.37-9.31-11.25-1.59-5.15-.9-12.15,1.68-14.45s4.56,1.79,9.53,1.22c7-.78,11.63-10.6,12.24-12.56.31-1,.85-2,1.27-3.23,2.07-5.9,3.93-14.18,1.28-19.35-4-7.76-14.54-1.91-19.46-10.88-2.28-4.16-1.78-9.21-1.56-10.7,1.42-9.85,9.38-19.11,20.78-22.36"/><path class="cls-27" d="M97.34,203.58c5.58,4.23,15.54-.62,18.68-10.81a51.87,51.87,0,0,0,1.81-12.23c.46-7.91.17-14.7-1.39-18.59s-1.95-3-9-8.95c-4.6-3.87-8.11-6.41-9.64-11.39-1.6-5.28-.81-12.45,1.93-14.75s4.84,2,10.06,1.49c7.37-.71,12.25-10.78,12.89-12.68.34-1,.89-2.07,1.34-3.29,2.18-6,4.11-14.47,1.36-19.71C121.21,84.79,110.17,91,105,81.89c-2.4-4.25-1.91-9.43-1.71-10.91,1.35-10,9.53-19.46,21.28-22.66"/><path class="cls-28" d="M98.62,203.69c6.33,5,16.87.34,20.34-9.91a44.91,44.91,0,0,0,1.93-12.16c.39-7.9-.31-14.85-2.22-18.77s-2.59-2.86-9.95-8.79c-4.83-3.89-8.43-6.46-10-11.53-1.62-5.39-.72-12.75,2.18-15.06s5.13,2.21,10.59,1.76c7.72-.63,12.87-11,13.54-12.8.37-1,.94-2.1,1.4-3.34,2.28-6.1,4.3-14.76,1.43-20.06-4.33-8-15.85-1.34-21.24-10.69-2.53-4.34-2-9.66-1.86-11.12,1.27-10.22,9.69-19.8,21.78-23"/><path class="cls-29" d="M99.9,203.79c7.08,5.7,18.19,1.29,22-9a39.55,39.55,0,0,0,2-12.08c.31-7.89-.78-15-3.06-18.94S117.66,161,110,155.12c-5.06-3.91-8.74-6.5-10.29-11.67-1.64-5.51-.63-13,2.42-15.36s5.41,2.42,11.12,2c8.06-.55,13.49-11.15,14.19-12.91.4-1,1-2.13,1.47-3.4,2.39-6.2,4.48-15,1.5-20.42-4.51-8.14-16.49-1.05-22.14-10.6-2.64-4.43-2.17-9.88-2-11.33,1.19-10.4,9.85-20.15,22.28-23.26"/><path class="cls-30" d="M101.17,203.89c7.83,6.44,19.51,2.24,23.65-8.11a35.29,35.29,0,0,0,2.17-12c.23-7.87-1.25-15.13-3.89-19.11s-3.86-2.57-11.83-8.49c-5.29-3.93-9.06-6.55-10.62-11.81-1.66-5.63-.54-13.34,2.67-15.67S109,131.33,115,131c8.41-.47,14.11-11.33,14.84-13,.43-1,1-2.17,1.54-3.45,2.49-6.3,4.67-15.33,1.57-20.78-4.69-8.26-17.12-.77-23-10.5-2.76-4.52-2.31-10.1-2.16-11.54,1.11-10.58,10-20.49,22.78-23.56"/><path class="cls-31" d="M102.45,204c8.58,7.17,20.82,3.18,25.31-7.21A31.83,31.83,0,0,0,130,184.85c.16-7.86-1.73-15.27-4.73-19.28s-4.49-2.42-12.77-8.34c-5.51-3.94-9.38-6.6-10.95-12-1.68-5.75-.45-13.64,2.92-16s6,2.85,12.18,2.57c8.75-.39,14.74-11.51,15.48-13.15.47-1,1.07-2.2,1.6-3.51,2.59-6.4,4.84-15.61,1.65-21.14-4.88-8.38-17.76-.49-23.93-10.41-2.88-4.62-2.44-10.33-2.31-11.75,1-10.76,10.17-20.84,23.28-23.86"/><path class="cls-32" d="M103.73,204.1c9.33,7.9,22.12,4.11,27-6.3a28.85,28.85,0,0,0,2.41-11.86c.1-7.85-2.2-15.4-5.56-19.46s-5.13-2.27-13.71-8.18c-5.74-4-9.69-6.64-11.27-12.1-1.69-5.87-.36-13.93,3.17-16.27s6.25,3.06,12.7,2.84c9.1-.31,15.36-11.68,16.13-13.27.51-1,1.12-2.23,1.67-3.57,2.7-6.5,5-15.9,1.72-21.49-5.06-8.51-18.4-.21-24.82-10.32-3-4.71-2.57-10.55-2.45-12C111.6,61.2,121,51,134.45,48"/><path class="cls-33" d="M105,204.2c10.08,8.64,23.42,5,28.62-5.4A26.5,26.5,0,0,0,136.16,187c0-7.84-2.66-15.54-6.4-19.63s-5.76-2.12-14.66-8c-6-4-10-6.69-11.6-12.24-1.71-6-.28-14.23,3.42-16.58s6.54,3.27,13.23,3.11c9.45-.23,16-11.86,16.78-13.39.55-1,1.16-2.27,1.74-3.62,2.81-6.59,5.21-16.18,1.79-21.85-5.23-8.64-19,.08-25.71-10.22-3.11-4.8-2.71-10.77-2.6-12.17.83-11.13,10.49-21.53,24.27-24.46"/><path class="cls-34" d="M138.4,47.85c-14.13,2.89-24,13.45-24.77,24.76-.09,1.39-.48,7.49,2.75,12.38,6.93,10.49,21.2,1.36,26.61,10.13,4.27,6.92-.23,19.72-3.67,25.89-.82,1.48-7.64,13.35-17.43,13.51-6.94.11-9.86-5.76-13.76-3.38s-5.4,10.78-3.67,16.88c1.6,5.65,5.74,8.4,11.93,12.38,9.2,5.92,11.62,3.87,15.6,7.88,6.24,6.29,10.09,21.18,4.59,31.51s-19.45,13.88-30.28,4.5"/><path class="cls-35" d="M38.7,73.78c2.81.25,29,13.1,40.91,35,1.54,2.82-59.18-8.4,5.48,25.77,37,19.55-31.19-3.1-39.93,6.2-5.25,5.58,77,56.68,54.47,65.85"/><path class="cls-36" d="M38,73.95c1.52.12,9.66,4.19,18.76,11.15C64.42,90.94,72.63,99,77.47,109c.3.61-2.26.58-5.8.51-9.65-.19-25.05-1-13.37,9.6,3,2.74,7.95,6.22,15.67,10.67,2.76,1.6,5.82,3.27,9.22,5,11.91,6.24,12.82,8,8.38,8-9.16.14-41.09-7.24-46.68-.87-5,5.65,75.17,55.49,53.77,64.34"/><path class="cls-37" d="M37.31,74.11c1.51.11,9.39,4.39,18.32,11.32,7.5,5.79,15.49,13.88,19.7,23.83.26.61-2.28.6-5.75.56-9.65-.1-23.51-1.1-12.59,9.6,2.81,2.75,7.5,6.21,15.15,10.71,2.76,1.62,5.79,3.28,9.15,5C93,141.22,94,142.8,89.78,143c-8.73.38-39.86-6.2-45.15.29C40,149,118,197.58,97.7,206.09"/><path class="cls-38" d="M36.61,74.27c1.5.09,9.12,4.59,17.88,11.48,7.34,5.74,15.11,13.84,18.69,23.72.22.62-2.29.69-5.7.61-9.65-.22-22-1.16-11.81,9.6,2.62,2.77,7.05,6.22,14.63,10.74,2.76,1.65,5.77,3.28,9.09,5,11.52,5.9,12.58,7.35,8.59,7.65-8.3.62-38.62-5.16-43.62,1.44C40,150.29,116,197.63,96.74,205.82"/><path class="cls-39" d="M35.92,74.44c1.49.07,8.84,4.79,17.43,11.64C60.54,91.77,68.08,99.9,71,109.69c.19.63-2.31.74-5.65.67-9.66-.2-20.38-1.19-11,9.61,2.43,2.8,6.6,6.22,14.11,10.78,2.76,1.67,5.75,3.29,9,4.95,11.32,5.73,12.46,7,8.7,7.45-7.87.86-37.38-4.13-42.1,2.6-4.09,5.84,69.81,51.94,51.68,59.8"/><path class="cls-40" d="M35.22,74.6c1.48.06,8.56,5,17,11.81,7,5.65,14.34,13.82,16.69,23.51.15.63-2.32.66-5.6.72-9.67.18-18.81-1.21-10.25,9.61,2.25,2.84,6.15,6.23,13.59,10.82,2.75,1.7,5.72,3.3,9,4.91,11.12,5.56,12.34,6.73,8.8,7.25-7.43,1.1-36.14-3.1-40.57,3.76-3.81,5.89,68,50.76,51,58.29"/><path class="cls-41" d="M34.52,74.76c1.48,0,8.28,5.22,16.55,12,6.86,5.6,13.94,13.85,15.69,23.4.12.64-2.34.68-5.55.77-9.68.28-17.23-1.2-9.47,9.61,2.07,2.89,5.7,6.23,13.07,10.85a99.69,99.69,0,0,0,8.89,4.88c10.92,5.39,12.22,6.42,8.9,7.06-7,1.34-34.9-2.07-39,4.92C40,154.17,109.8,197.8,93.84,205"/><path class="cls-42" d="M33.83,74.93c1.47,0,8,5.42,16.1,12.13,6.7,5.55,13.51,13.9,14.69,23.29.08.66-2.35.7-5.51.82-9.69.37-17.45.25-8.68,9.62C51.79,124,55.68,127,63,131.67a88.08,88.08,0,0,0,8.82,4.85c10.72,5.22,12.11,6.11,9,6.86-6.55,1.59-33.67-1.05-37.52,6.08-3.23,6,64.45,48.39,49.58,55.26"/><path class="cls-43" d="M33.13,75.09c1.46,0,7.74,5.63,15.66,12.3,6.54,5.51,13.06,14,13.69,23.19,0,.67-2.37.72-5.46.87-9.69.47-16.14.43-7.9,9.62,1.09,3.31,4.8,6.24,12,10.92a78.62,78.62,0,0,0,8.76,4.82c10.53,5.05,12,5.8,9.11,6.67-6.1,1.83-32.43,0-36,7.24-3,6,62.67,47.21,48.88,53.75"/><path class="cls-44" d="M32.43,75.25c1.45,0,7.46,5.83,15.22,12.46,6.38,5.46,12.58,14,12.69,23.08,0,.68-2.38.74-5.41.92-9.7.57-14.84.6-7.12,9.62.82,3.38,4.35,6.25,11.51,11A70.76,70.76,0,0,0,68,137.08c10.33,4.89,11.89,5.49,9.22,6.47-5.65,2.07-31.19,1-34.46,8.4-2.67,6.07,60.88,46,48.18,52.24"/><path class="cls-45" d="M31.74,75.42c1.44,0,7.19,6,14.77,12.62C52.74,93.45,57,102.26,58.2,111c-.16.68-2.4.77-5.36,1-9.71.67-13.53.77-6.34,9.63.56,3.46,3.9,6.26,11,11a64.13,64.13,0,0,0,8.63,4.75c10.13,4.72,11.78,5.18,9.32,6.28-5.18,2.31-30,2-32.94,9.56C40.1,159.29,101.59,198,90,203.92"/><path class="cls-46" d="M31,75.58c1.43,0,6.91,6.24,14.33,12.79,6.07,5.36,9.89,14.24,10.69,22.87-.21.69-2.41.79-5.31,1-9.72.77-12.23.94-5.56,9.63.29,3.53,3.45,6.27,10.47,11a58.46,58.46,0,0,0,8.56,4.72c9.92,4.55,11.68,4.87,9.43,6.08-4.72,2.54-28.73,3-31.41,10.72-2.12,6.13,57.31,43.65,46.79,49.22"/><path class="cls-47" d="M30.34,75.74c1.42-.06,6.64,6.44,13.89,12.95,5.91,5.31,9.31,14.26,9.69,22.76-.26.7-2.43.82-5.26,1.08-9.74.88-10.92,1.11-4.78,9.63,0,3.6,3,6.27,10,11.06a53.56,53.56,0,0,0,8.49,4.69c9.72,4.39,11.58,4.55,9.53,5.89-4.24,2.76-27.51,4-29.88,11.88-1.85,6.16,55.52,42.47,46.09,47.7"/><path class="cls-48" d="M29.65,75.91C31.06,75.83,36,82.55,43.09,89c5.75,5.26,8.73,14.28,8.69,22.65-.31.7-2.45.85-5.21,1.13-9.75,1-9.62,1.29-4,9.64-.24,3.68,2.54,6.28,9.43,11.1a49.29,49.29,0,0,0,8.43,4.65c9.52,4.22,11.49,4.23,9.64,5.69-3.76,3-26.29,5-28.36,13-1.59,6.19,53.73,41.28,45.39,46.19"/><path class="cls-49" d="M29,76.07C30.36,76,35,82.92,42,89.34c5.6,5.21,8.15,14.3,7.69,22.55-.35.71-2.46.88-5.17,1.18-9.76,1.09-8.32,1.46-3.22,9.64-.51,3.75,2.09,6.29,8.91,11.13a45.52,45.52,0,0,0,8.36,4.62c9.32,4.06,11.4,3.89,9.74,5.5-3.29,3.17-25.08,6-26.83,14.2-1.32,6.21,51.94,40.1,44.69,44.68"/><path class="cls-50" d="M28.25,76.23c1.4-.11,5.82,7,12.56,13.44,5.44,5.16,7.58,14.32,6.69,22.44-.4.72-2.48.9-5.12,1.23-9.77,1.2-7,1.63-2.44,9.64-.77,3.82,1.64,6.3,8.39,11.17a42.19,42.19,0,0,0,8.3,4.59c9.12,3.89,11.3,3.56,9.84,5.3-2.81,3.35-23.87,7-25.31,15.36-1.07,6.23,50.16,38.92,44,43.17"/><path class="cls-51" d="M27.56,76.4c1.39-.12,5.54,7.25,12.11,13.6,5.28,5.11,7,14.34,5.68,22.33-.45.73-2.49.93-5.07,1.28-9.78,1.31-5.71,1.8-1.66,9.65-1,3.89,1.18,6.31,7.87,11.21A39.21,39.21,0,0,0,54.73,139c8.92,3.73,11.21,3.21,9.95,5.1-2.34,3.52-22.66,7.94-23.78,16.51-.81,6.25,48.37,37.73,43.29,41.65"/><path class="cls-52" d="M26.86,76.56c1.38-.14,5.27,7.45,11.67,13.76,5.13,5.06,6.42,14.36,4.68,22.22-.5.73-2.51,1-5,1.33-9.79,1.43-4.4,2-.88,9.65-1.31,4,.73,6.33,7.35,11.24a36.54,36.54,0,0,0,8.17,4.52c8.72,3.56,11.11,2.86,10.05,4.91-1.89,3.67-21.47,8.93-22.25,17.67-.56,6.27,46.58,36.55,42.59,40.14"/><path class="cls-53" d="M26.16,76.72c1.37-.15,5,7.66,11.23,13.93,5,5,5.85,14.38,3.68,22.12-.55.74-2.53,1-5,1.38-9.8,1.55-3.1,2.15-.1,9.65-1.57,4,.27,6.34,6.83,11.28a34.13,34.13,0,0,0,8.1,4.49c8.51,3.4,11,2.5,10.16,4.71-1.45,3.81-20.27,9.92-20.73,18.83-.32,6.3,44.8,35.36,41.9,38.63"/><path class="cls-54" d="M25.47,76.89c1.36-.17,4.73,7.86,10.78,14.09,4.81,5,6.55,15,2.68,22-.46.84-2.54,1-4.92,1.43-9.82,1.67-1.79,2.32.68,9.66-1.84,4.11-.18,6.35,6.31,11.31a31.94,31.94,0,0,0,8,4.46c8.31,3.24,10.88,2.14,10.26,4.52-1,4-19.09,10.91-19.2,20-.08,6.32,43,34.18,41.2,37.12"/><path class="cls-55" d="M24.77,77c1.36-.19,4.45,8.06,10.34,14.25,4.66,4.9,5.88,15,1.68,21.9-.52.85-2.56,1.06-4.88,1.48-9.83,1.79-.49,2.49,1.47,9.66-2.11,4.19-.63,6.36,5.79,11.35a30,30,0,0,0,8,4.42c8.11,3.08,10.75,1.79,10.37,4.32-.61,4.1-17.91,11.9-17.67,21.15.16,6.34,41.22,33,40.5,35.61"/><path class="cls-56" d="M24.07,77.21c1.35-.2,4.18,8.26,9.9,14.42,4.5,4.85,5.2,15,.68,21.8-.57.86-2.57,1.1-4.83,1.54-9.84,1.92.82,2.66,2.25,9.66C29.7,128.88,31,131,37.34,136a28.12,28.12,0,0,0,7.9,4.39c7.9,2.91,10.61,1.44,10.47,4.13-.22,4.26-16.73,12.89-16.15,22.31.4,6.36,39.44,31.81,39.8,34.09"/><path class="cls-57" d="M23.38,77.38c1.34-.22,3.91,8.46,9.45,14.58,4.35,4.8,4.52,15.07-.32,21.69-.63.87-2.59,1.13-4.78,1.59-9.85,2.05,2.12,2.83,3,9.67-2.64,4.33-1.54,6.39,4.75,11.42a26.45,26.45,0,0,0,7.84,4.36c7.7,2.75,10.46,1.09,10.57,3.93.18,4.42-15.56,13.89-14.62,23.47.63,6.39,37.65,30.63,39.1,32.58"/><path class="cls-58" d="M22.68,77.54c1.33-.24,3.64,8.66,9,14.74,4.19,4.75,3.84,15.08-1.32,21.58-.69.87-2.6,1.17-4.73,1.64-9.85,2.19,3.43,3,3.81,9.67-2.9,4.4-2,6.4,4.24,11.45A24.92,24.92,0,0,0,41.45,141c7.5,2.59,10.31.75,10.68,3.74.56,4.59-14.39,14.88-13.09,24.63.86,6.42,35.86,29.44,38.4,31.07"/><path class="cls-59" d="M22,77.7c1.32-.25,3.37,8.86,8.57,14.91,4,4.69,3.16,15.08-2.32,21.48-.75.87-2.62,1.2-4.68,1.69-9.86,2.33,4.73,3.18,4.59,9.67-3.17,4.48-2.46,6.41,3.72,11.49a23.49,23.49,0,0,0,7.71,4.29c7.29,2.44,10.16.41,10.78,3.54.95,4.78-13.23,15.88-11.57,25.79,1.08,6.45,34.08,28.26,37.7,29.56"/><path class="cls-60" d="M21.29,77.87c1.31-.27,3.1,9.06,8.12,15.07,3.88,4.64,2.48,15.08-3.32,21.37-.81.88-2.63,1.24-4.63,1.74-9.87,2.47,6,3.35,5.37,9.68-3.44,4.55-2.91,6.43,3.2,11.52a22.18,22.18,0,0,0,7.64,4.26c7.09,2.28,10,.08,10.89,3.34,1.33,5-12.07,16.89-10,26.95,1.31,6.48,32.29,27.07,37,28"/><path class="cls-61" d="M20.59,78c1.31-.28,2.83,9.26,7.68,15.23,3.73,4.59,1.81,15.06-4.32,21.26-.87.88-2.65,1.28-4.58,1.79-9.87,2.62,7.34,3.52,6.15,9.68-3.7,4.62-3.37,6.44,2.68,11.56a21,21,0,0,0,7.57,4.23c6.88,2.12,9.86-.25,11,3.15,1.72,5.17-10.92,17.9-8.51,28.11,1.53,6.51,30.5,25.89,36.31,26.53"/><path class="cls-62" d="M19.89,78.19c1.3-.3,2.56,9.46,7.23,15.4,3.57,4.54,1.14,15-5.32,21.16-.93.88-2.66,1.31-4.54,1.84-9.87,2.78,8.65,3.69,6.93,9.68-4,4.7-3.83,6.46,2.16,11.6a19.82,19.82,0,0,0,7.51,4.19c6.68,2,9.71-.57,11.1,3,2.1,5.37-9.77,18.91-7,29.27,1.76,6.55,28.71,24.71,35.61,25"/><path class="cls-63" d="M19.2,78.36C20.49,78,21.49,88,26,93.92c3.42,4.48.48,15-6.33,21a12.52,12.52,0,0,1-4.49,1.89c-9.87,2.94,10,3.87,7.71,9.69-4.23,4.77-4.28,6.47,1.64,11.63A18.76,18.76,0,0,0,32,142.34c6.47,1.81,9.57-.9,11.2,2.76,2.49,5.58-8.62,19.92-5.46,30.43,2,6.59,26.93,23.52,34.91,23.51"/><path class="cls-64" d="M18.5,78.52c1.28-.33,2,9.85,6.35,15.72,3.26,4.43-.18,15-7.33,20.94a13.53,13.53,0,0,1-4.44,1.95c-9.87,3.11,12.05,4.5,8.49,9.69-3.74,5.45-4.74,6.49,1.12,11.67a17.77,17.77,0,0,0,7.38,4.13c6.27,1.66,9.42-1.22,11.31,2.56,2.89,5.79-7.47,20.94-3.93,31.58,2.2,6.63,25.14,22.34,34.21,22"/><path class="cls-65" d="M17.8,78.68c1.27-.35,1.75,10.05,5.9,15.89,3.11,4.37-.83,14.92-8.33,20.84a14.82,14.82,0,0,1-4.39,2c-9.86,3.28,13.17,4.62,9.27,9.69-4.17,5.43-5.2,6.5.6,11.7a16.84,16.84,0,0,0,7.31,4.1c6.06,1.51,9.28-1.53,11.41,2.37,3.28,6-6.32,22-2.41,32.74,2.42,6.67,23.35,21.15,33.51,20.48"/><path class="cls-66" d="M17.11,78.85c1.26-.37,1.49,10.25,5.46,16,3,4.32-1.48,14.87-9.33,20.73a16.51,16.51,0,0,1-4.34,2c-9.85,3.46,14.3,4.72,10.05,9.7-4.6,5.39-5.66,6.52.08,11.74a16,16,0,0,0,7.25,4.06c5.85,1.36,9.13-1.85,11.51,2.17,3.68,6.22-5.18,23-.88,33.9,2.64,6.72,21.57,20,32.81,19"/><path class="cls-67" d="M16.41,79c1.25-.38,1.22,10.45,5,16.21,2.81,4.27-2.12,14.82-10.33,20.62a18.78,18.78,0,0,1-4.29,2.1c-9.84,3.65,15.44,4.8,10.83,9.7-5,5.34-6.12,6.53-.44,11.77a15.16,15.16,0,0,0,7.18,4c5.65,1.21,9-2.17,11.62,2,4.08,6.44-4,24,.65,35.06,2.86,6.77,19.78,18.78,32.12,17.46"/><path class="cls-68" d="M15.71,79.17c1.25-.4,1,10.64,4.57,16.38C23,99.75,17.53,110.3,9,116.06a22,22,0,0,1-4.25,2.15c-9.81,3.84,16.6,4.85,11.62,9.7-5.43,5.28-6.58,6.56-1,11.81a14.35,14.35,0,0,0,7.11,4c5.44,1.06,8.85-2.48,11.72,1.78,4.48,6.66-2.89,25,2.17,36.22,3.09,6.82,18,17.6,31.42,15.95"/><path class="cls-69" d="M15,79.34c1.24-.41.69,10.84,4.13,16.54,2.88,4.78-5.34,18-16.53,22.61-9.79,4,17.78,4.9,12.4,9.71-5.83,5.21-7,6.57-1.48,11.84,9.51,9,14.54-.55,18.88,5.55,4.88,6.88-1.74,26.08,3.7,37.38,3.31,6.87,16.21,16.42,30.72,14.43"/><path class="cls-70" d="M100.57,10c4.68,1,4.62,1.2,20.62,32.59,2.92,5.73,34.36.18,43.19,59.41,7.78,52.19-37.19,34.93-40.89,79.46-3.38,40.67,5.73,31.76,5.19,36.81"/><path class="cls-71" d="M102,9.58c4.48,1.7,5.42,2.16,19,33.1,2.48,5.64,31.84,1.84,41.18,59.41,8.43,52-33,34.87-36.88,79.33-3.41,39.38,4.79,31.75,4.29,36.79"/><path class="cls-72" d="M103.49,9.16c4.29,2.42,6.19,3,17.47,33.61,2,5.54,29.35,3.49,39.16,59.41,9.09,51.81-28.87,34.81-32.86,79.2-3.43,38.08,3.84,31.73,3.39,36.78"/><path class="cls-73" d="M104.95,8.74c4.09,3.14,6.94,3.84,15.9,34.12,1.61,5.43,26.89,5.14,37.15,59.4,9.76,51.63-24.7,34.75-28.85,79.07-3.44,36.78,2.89,31.72,2.49,36.76"/><path class="cls-74" d="M106.41,8.33c3.9,3.86,7.68,4.54,14.32,34.63,1.17,5.3,24.45,6.8,35.13,59.4C166.32,153.81,135.34,137,131,181.3c-3.45,35.48,1.94,31.7,1.59,36.75"/><path class="cls-75" d="M107.87,7.91c3.7,4.58,8.44,5.13,12.75,35.14.74,5.16,22,8.46,33.12,59.4,11.15,51.28-16.36,34.63-20.82,78.82-3.45,34.19,1,31.69.68,36.74"/><path class="cls-76" d="M109.33,7.49c3.51,5.3,9.23,5.63,11.17,35.64.32,5,19.66,10.11,31.11,59.4,11.87,51.12-12.18,34.57-16.8,78.69-3.44,32.89.05,31.68-.22,36.72"/><path class="cls-77" d="M110.79,7.08c3.31,6,10.08,6,9.6,36.15-.08,4.84,17.31,11.76,29.09,59.39,12.6,51-8,34.5-12.78,78.56-3.43,31.59-.9,31.66-1.12,36.71"/><path class="cls-78" d="M112.25,6.66c3.12,6.74,11,6.37,8,36.66-.46,4.66,15,13.42,27.08,59.39,13.35,50.79-3.82,34.44-8.77,78.43-3.41,30.3-1.84,31.65-2,36.69"/><path class="cls-79" d="M113.71,6.24c2.92,7.46,12,6.65,6.45,37.17-.82,4.48,12.7,15.06,25.06,59.39,14.12,50.64.37,34.38-4.75,78.3-3.38,29-2.79,31.63-2.93,36.68"/><path class="cls-80" d="M115.17,5.83C117.9,14,128.38,12.75,120,43.51c-1.16,4.29,10.43,16.71,23,59.39,14.92,50.48,4.56,34.32-.74,78.17-3.34,27.71-3.74,31.62-3.83,36.67"/><path class="cls-81" d="M116.63,5.41c2.53,8.9,14.5,7.2,3.3,38.19-1.48,4.11,8.2,18.35,21,59.39,15.74,50.31,8.76,34.26,3.28,78-3.3,26.41-4.68,31.61-4.73,36.65"/><path class="cls-82" d="M118.09,5c2.34,9.62,15.91,7.54,1.73,38.69-1.79,3.93,6,20,19,59.38,16.58,50.15,13,34.19,7.29,77.91-3.26,25.12-5.63,31.59-5.63,36.64"/><path class="cls-83" d="M119.55,4.58c2.14,10.34,17.44,8,.15,39.2-2.08,3.77,3.81,21.61,17,59.38,17.46,50,17.17,34.13,11.31,77.79-3.2,23.82-6.58,31.58-6.53,36.62"/><path class="cls-84" d="M121,4.16c1.95,11.06,19.06,8.48-1.42,39.71-2.37,3.61,1.65,23.23,15,59.38C152.94,153,156,137.33,149.9,180.91c-3.14,22.53-7.53,31.56-7.44,36.61"/><path class="cls-85" d="M122.47,3.75c1.75,11.78,20.75,9.11-3,40.22-2.65,3.47-.47,24.84,13,59.38,19.31,49.6,25.63,34,19.34,77.53-3.07,21.24-8.47,31.55-8.34,36.6"/><path class="cls-86" d="M123.93,3.33c1.56,12.5,22.5,9.86-4.57,40.73-2.93,3.34-2.57,26.43,11,59.38,20.29,49.39,29.87,34,23.36,77.4-3,19.95-9.42,31.54-9.24,36.58"/><path class="cls-87" d="M125.39,2.91c1.36,13.22,24.26,10.72-6.15,41.24-3.21,3.22-4.65,28,8.94,59.37,21.31,49.16,34.13,33.9,27.37,77.27-2.91,18.66-10.37,31.52-10.14,36.57"/><path class="cls-88" d="M126.85,2.5c1.17,13.94,26,11.68-7.72,41.74-3.49,3.11-6.7,29.59,6.93,59.37,22.39,48.9,38.41,33.85,31.39,77.14-2.82,17.37-11.31,31.51-11,36.55"/><path class="cls-89" d="M128.31,2.08c1,14.66,27.79,12.73-9.3,42.25-3.78,3-8.73,31.15,4.92,59.37,23.51,48.61,42.71,33.8,35.41,77-2.72,16.08-12.26,31.49-11.95,36.54"/><path class="cls-90" d="M129.77,1.67c.78,15.38,29.52,13.85-10.87,42.76-4.07,2.91-10.74,32.69,2.9,59.37,24.69,48.29,47,33.76,39.42,76.88-2.61,14.8-13.21,31.48-12.85,36.53"/><path class="cls-91" d="M131.23,1.25c.58,16.1,31.23,15-12.45,43.27-4.37,2.82-12.73,34.21.89,59.37,25.94,47.92,51.41,33.72,43.44,76.75-2.5,13.52-14.15,31.47-13.75,36.51"/><path class="cls-92" d="M132.69.83c.39,16.82,32.9,16.25-14,43.78C114,47.35,104,80.32,117.54,104c27.25,47.49,55.82,33.7,47.45,76.63-2.38,12.23-15.1,31.45-14.65,36.5"/><path class="cls-93" d="M134.15.42c.19,17.54,34.53,17.5-15.6,44.29-5,2.66-16.66,37.18-3.14,59.36,28.64,47,60.29,33.69,51.47,76.5-2.26,11-16,31.44-15.56,36.48"/><path class="cls-94" d="M135.61,0c0,18.26,36.13,18.78-17.17,44.79-5.29,2.58-18.61,38.63-5.16,59.36,30.12,46.41,64.86,33.7,55.48,76.37-2.13,9.68-17,31.42-16.46,36.47"/></g></g></svg>